<?xml version="1.0" encoding="UTF-8"?>
<svg width="793px" height="381px" viewBox="0 0 793 381" version="1.1" xmlns="http://www.w3.org/2000/svg" xmlns:xlink="http://www.w3.org/1999/xlink">
    <!-- Generator: Sketch 54.1 (76490) - https://sketchapp.com -->
    <title>Arrows</title>
    <desc>Created with Sketch.</desc>
    <defs>
        <path d="M0,0.597931034 L0,20.1496552 C0.0553943662,22.0468966 1.29333803,23.7944828 3.49707042,25.0665517 L3.49707042,25.0665517 L75.8397042,66.9289655 C78.2337042,68.3144828 81.4417606,68.9951724 84.8063662,69 L84.8063662,69 L84.8713944,69 C88.9513099,68.9951724 93.2528028,67.9982759 96.6101831,66.0551724 L96.6101831,66.0551724 L165.930211,25.9427586 C168.748099,24.3134483 170.474958,22.2472414 170.850676,20.1496552 L170.850676,20.1496552 L170.93738,20.1496552 L170.93738,0.597931034 L0,0.597931034 Z" id="path-1"></path>
        <linearGradient x1="50.0005905%" y1="80.0669987%" x2="50.0005905%" y2="-52.5880016%" id="linearGradient-3">
            <stop stop-color="#3F50B5" offset="0%"></stop>
            <stop stop-color="#2195F2" offset="100%"></stop>
        </linearGradient>
        <path d="M86.0948873,0.990761905 C82.0101549,0.990761905 77.6918028,1.98392857 74.3296056,3.92216667 L74.3296056,3.92216667 L5.00476056,43.8845 C1.8713662,45.692881 0.0602112676,48.0471429 0,50.3797619 L0,50.3797619 L0,50.6274524 C0.0553943662,52.52 1.29333803,54.2586429 3.49707042,55.5283571 L3.49707042,55.5283571 L75.8397042,97.2341429 C81.1527465,100.293 90.4662254,99.9034286 96.6101831,96.3612143 L96.6101831,96.3612143 L165.930211,56.4012857 C169.078056,54.5856905 170.881986,52.2338333 170.93738,49.8964048 L170.93738,49.8964048 L170.93738,49.6727619 C170.93738,49.6342857 170.934972,49.5934048 170.932563,49.5549286 L170.932563,49.5549286 C170.838634,47.6768095 169.632,46.0199286 167.437901,44.7574286 L167.437901,44.7574286 L95.0952676,3.05164286 C92.6940423,1.6665 89.4739437,0.990761905 86.0948873,0.990761905 Z" id="path-4"></path>
        <linearGradient x1="24.6865907%" y1="64.0909376%" x2="74.978919%" y2="36.095188%" id="linearGradient-6">
            <stop stop-color="#14A3DB" offset="0%"></stop>
            <stop stop-color="#57F2E8" offset="100%"></stop>
        </linearGradient>
        <path d="M45.22,1.77092308 L3.2248,25.8626923 C1.2592,26.9906154 0.1528,28.4714615 0.1912,29.9284615 L0.1912,29.9284615 C0.2272,31.0683077 0.9784,32.1175385 2.308,32.883 L2.308,32.883 L46.1368,58.0216154 C49.3528,59.8673077 54.9976,59.6336154 58.7176,57.4993846 L58.7176,57.4993846 L100.7104,33.4076154 C102.712,32.2606154 103.8184,30.7559231 103.744,29.2822308 L103.744,29.2822308 C103.6888,28.1495385 102.9544,27.1503846 101.6272,26.3873077 L101.6272,26.3873077 L57.7984,1.24630769 C56.3464,0.411692308 54.3952,0.00392307692 52.3504,0.00392307692 L52.3504,0.00392307692 C49.8736,0.00392307692 47.2576,0.602461538 45.22,1.77092308" id="path-7"></path>
        <linearGradient x1="50.0002322%" y1="89.4756902%" x2="50.0002322%" y2="-42.3423772%" id="linearGradient-9">
            <stop stop-color="#3F50B5" offset="0%"></stop>
            <stop stop-color="#2195F2" offset="100%"></stop>
        </linearGradient>
        <path d="M45.22,2.32976923 L3.2248,26.4191538 C1.2592,27.5494615 0.1528,29.0303077 0.1912,30.4849231 L0.1912,30.4849231 C0.2272,31.6271538 0.9784,32.674 2.308,33.4394615 L2.308,33.4394615 L46.1368,58.5804615 C49.3528,60.4261538 54.9976,60.1924615 58.7176,58.0558462 L58.7176,58.0558462 L100.7104,33.9640769 C102.712,32.8170769 103.8184,31.3147692 103.744,29.8386923 L103.744,29.8386923 C103.6888,28.7083846 102.9544,27.7092308 101.6272,26.9461538 L101.6272,26.9461538 L57.7984,1.80515385 C56.3464,0.970538462 54.3952,0.560384615 52.3504,0.560384615 L52.3504,0.560384615 C49.8736,0.560384615 47.2576,1.15892308 45.22,2.32976923" id="path-10"></path>
        <linearGradient x1="50.0002322%" y1="89.4748375%" x2="50.0002322%" y2="-42.3384176%" id="linearGradient-12">
            <stop stop-color="#148ADB" offset="0%"></stop>
            <stop stop-color="#57F2E8" offset="100%"></stop>
        </linearGradient>
        <polygon id="path-13" points="0.0275 4.168 0.0275 7.732 7.355 3.6712 7.355 0.1048"></polygon>
        <path d="M0,0.597931034 L0,20.1496552 C0.0553943662,22.0468966 1.29333803,23.7944828 3.49707042,25.0665517 L3.49707042,25.0665517 L75.8397042,66.9289655 C78.2337042,68.3144828 81.4417606,68.9951724 84.8063662,69 L84.8063662,69 L84.8713944,69 C88.9513099,68.9951724 93.2528028,67.9982759 96.6101831,66.0551724 L96.6101831,66.0551724 L165.930211,25.9427586 C168.748099,24.3134483 170.474958,22.2472414 170.850676,20.1496552 L170.850676,20.1496552 L170.93738,20.1496552 L170.93738,0.597931034 L0,0.597931034 Z" id="path-15"></path>
        <path d="M86.0948873,0.990761905 C82.0101549,0.990761905 77.6918028,1.98392857 74.3296056,3.92216667 L74.3296056,3.92216667 L5.00476056,43.8845 C1.8713662,45.692881 0.0602112676,48.0471429 0,50.3797619 L0,50.3797619 L0,50.6274524 C0.0553943662,52.52 1.29333803,54.2586429 3.49707042,55.5283571 L3.49707042,55.5283571 L75.8397042,97.2341429 C81.1527465,100.293 90.4662254,99.9034286 96.6101831,96.3612143 L96.6101831,96.3612143 L165.930211,56.4012857 C169.078056,54.5856905 170.881986,52.2338333 170.93738,49.8964048 L170.93738,49.8964048 L170.93738,49.6727619 C170.93738,49.6342857 170.934972,49.5934048 170.932563,49.5549286 L170.932563,49.5549286 C170.838634,47.6768095 169.632,46.0199286 167.437901,44.7574286 L167.437901,44.7574286 L95.0952676,3.05164286 C92.6940423,1.6665 89.4739437,0.990761905 86.0948873,0.990761905 Z" id="path-17"></path>
        <path d="M45.22,1.77092308 L3.2248,25.8626923 C1.2592,26.9906154 0.1528,28.4714615 0.1912,29.9284615 L0.1912,29.9284615 C0.2272,31.0683077 0.9784,32.1175385 2.308,32.883 L2.308,32.883 L46.1368,58.0216154 C49.3528,59.8673077 54.9976,59.6336154 58.7176,57.4993846 L58.7176,57.4993846 L100.7104,33.4076154 C102.712,32.2606154 103.8184,30.7559231 103.744,29.2822308 L103.744,29.2822308 C103.6888,28.1495385 102.9544,27.1503846 101.6272,26.3873077 L101.6272,26.3873077 L57.7984,1.24630769 C56.3464,0.411692308 54.3952,0.00392307692 52.3504,0.00392307692 L52.3504,0.00392307692 C49.8736,0.00392307692 47.2576,0.602461538 45.22,1.77092308" id="path-19"></path>
        <path d="M45.22,2.32976923 L3.2248,26.4191538 C1.2592,27.5494615 0.1528,29.0303077 0.1912,30.4849231 L0.1912,30.4849231 C0.2272,31.6271538 0.9784,32.674 2.308,33.4394615 L2.308,33.4394615 L46.1368,58.5804615 C49.3528,60.4261538 54.9976,60.1924615 58.7176,58.0558462 L58.7176,58.0558462 L100.7104,33.9640769 C102.712,32.8170769 103.8184,31.3147692 103.744,29.8386923 L103.744,29.8386923 C103.6888,28.7083846 102.9544,27.7092308 101.6272,26.9461538 L101.6272,26.9461538 L57.7984,1.80515385 C56.3464,0.970538462 54.3952,0.560384615 52.3504,0.560384615 L52.3504,0.560384615 C49.8736,0.560384615 47.2576,1.15892308 45.22,2.32976923" id="path-21"></path>
        <polygon id="path-23" points="0.0275 4.168 0.0275 7.732 7.355 3.6712 7.355 0.1048"></polygon>
        <path d="M0,0.597931034 L0,20.1496552 C0.0553943662,22.0468966 1.29333803,23.7944828 3.49707042,25.0665517 L3.49707042,25.0665517 L75.8397042,66.9289655 C78.2337042,68.3144828 81.4417606,68.9951724 84.8063662,69 L84.8063662,69 L84.8713944,69 C88.9513099,68.9951724 93.2528028,67.9982759 96.6101831,66.0551724 L96.6101831,66.0551724 L165.930211,25.9427586 C168.748099,24.3134483 170.474958,22.2472414 170.850676,20.1496552 L170.850676,20.1496552 L170.93738,20.1496552 L170.93738,0.597931034 L0,0.597931034 Z" id="path-25"></path>
        <path d="M86.0948873,0.990761905 C82.0101549,0.990761905 77.6918028,1.98392857 74.3296056,3.92216667 L74.3296056,3.92216667 L5.00476056,43.8845 C1.8713662,45.692881 0.0602112676,48.0471429 0,50.3797619 L0,50.3797619 L0,50.6274524 C0.0553943662,52.52 1.29333803,54.2586429 3.49707042,55.5283571 L3.49707042,55.5283571 L75.8397042,97.2341429 C81.1527465,100.293 90.4662254,99.9034286 96.6101831,96.3612143 L96.6101831,96.3612143 L165.930211,56.4012857 C169.078056,54.5856905 170.881986,52.2338333 170.93738,49.8964048 L170.93738,49.8964048 L170.93738,49.6727619 C170.93738,49.6342857 170.934972,49.5934048 170.932563,49.5549286 L170.932563,49.5549286 C170.838634,47.6768095 169.632,46.0199286 167.437901,44.7574286 L167.437901,44.7574286 L95.0952676,3.05164286 C92.6940423,1.6665 89.4739437,0.990761905 86.0948873,0.990761905 Z" id="path-27"></path>
        <path d="M45.22,1.77092308 L3.2248,25.8626923 C1.2592,26.9906154 0.1528,28.4714615 0.1912,29.9284615 L0.1912,29.9284615 C0.2272,31.0683077 0.9784,32.1175385 2.308,32.883 L2.308,32.883 L46.1368,58.0216154 C49.3528,59.8673077 54.9976,59.6336154 58.7176,57.4993846 L58.7176,57.4993846 L100.7104,33.4076154 C102.712,32.2606154 103.8184,30.7559231 103.744,29.2822308 L103.744,29.2822308 C103.6888,28.1495385 102.9544,27.1503846 101.6272,26.3873077 L101.6272,26.3873077 L57.7984,1.24630769 C56.3464,0.411692308 54.3952,0.00392307692 52.3504,0.00392307692 L52.3504,0.00392307692 C49.8736,0.00392307692 47.2576,0.602461538 45.22,1.77092308" id="path-29"></path>
        <path d="M45.22,2.32976923 L3.2248,26.4191538 C1.2592,27.5494615 0.1528,29.0303077 0.1912,30.4849231 L0.1912,30.4849231 C0.2272,31.6271538 0.9784,32.674 2.308,33.4394615 L2.308,33.4394615 L46.1368,58.5804615 C49.3528,60.4261538 54.9976,60.1924615 58.7176,58.0558462 L58.7176,58.0558462 L100.7104,33.9640769 C102.712,32.8170769 103.8184,31.3147692 103.744,29.8386923 L103.744,29.8386923 C103.6888,28.7083846 102.9544,27.7092308 101.6272,26.9461538 L101.6272,26.9461538 L57.7984,1.80515385 C56.3464,0.970538462 54.3952,0.560384615 52.3504,0.560384615 L52.3504,0.560384615 C49.8736,0.560384615 47.2576,1.15892308 45.22,2.32976923" id="path-31"></path>
        <polygon id="path-33" points="0.0275 4.168 0.0275 7.732 7.355 3.6712 7.355 0.1048"></polygon>
        <path d="M0,0.597931034 L0,20.1496552 C0.0553943662,22.0468966 1.29333803,23.7944828 3.49707042,25.0665517 L3.49707042,25.0665517 L75.8397042,66.9289655 C78.2337042,68.3144828 81.4417606,68.9951724 84.8063662,69 L84.8063662,69 L84.8713944,69 C88.9513099,68.9951724 93.2528028,67.9982759 96.6101831,66.0551724 L96.6101831,66.0551724 L165.930211,25.9427586 C168.748099,24.3134483 170.474958,22.2472414 170.850676,20.1496552 L170.850676,20.1496552 L170.93738,20.1496552 L170.93738,0.597931034 L0,0.597931034 Z" id="path-35"></path>
        <path d="M86.0948873,0.990761905 C82.0101549,0.990761905 77.6918028,1.98392857 74.3296056,3.92216667 L74.3296056,3.92216667 L5.00476056,43.8845 C1.8713662,45.692881 0.0602112676,48.0471429 0,50.3797619 L0,50.3797619 L0,50.6274524 C0.0553943662,52.52 1.29333803,54.2586429 3.49707042,55.5283571 L3.49707042,55.5283571 L75.8397042,97.2341429 C81.1527465,100.293 90.4662254,99.9034286 96.6101831,96.3612143 L96.6101831,96.3612143 L165.930211,56.4012857 C169.078056,54.5856905 170.881986,52.2338333 170.93738,49.8964048 L170.93738,49.8964048 L170.93738,49.6727619 C170.93738,49.6342857 170.934972,49.5934048 170.932563,49.5549286 L170.932563,49.5549286 C170.838634,47.6768095 169.632,46.0199286 167.437901,44.7574286 L167.437901,44.7574286 L95.0952676,3.05164286 C92.6940423,1.6665 89.4739437,0.990761905 86.0948873,0.990761905 Z" id="path-37"></path>
        <path d="M45.22,1.77092308 L3.2248,25.8626923 C1.2592,26.9906154 0.1528,28.4714615 0.1912,29.9284615 L0.1912,29.9284615 C0.2272,31.0683077 0.9784,32.1175385 2.308,32.883 L2.308,32.883 L46.1368,58.0216154 C49.3528,59.8673077 54.9976,59.6336154 58.7176,57.4993846 L58.7176,57.4993846 L100.7104,33.4076154 C102.712,32.2606154 103.8184,30.7559231 103.744,29.2822308 L103.744,29.2822308 C103.6888,28.1495385 102.9544,27.1503846 101.6272,26.3873077 L101.6272,26.3873077 L57.7984,1.24630769 C56.3464,0.411692308 54.3952,0.00392307692 52.3504,0.00392307692 L52.3504,0.00392307692 C49.8736,0.00392307692 47.2576,0.602461538 45.22,1.77092308" id="path-39"></path>
        <path d="M45.22,2.32976923 L3.2248,26.4191538 C1.2592,27.5494615 0.1528,29.0303077 0.1912,30.4849231 L0.1912,30.4849231 C0.2272,31.6271538 0.9784,32.674 2.308,33.4394615 L2.308,33.4394615 L46.1368,58.5804615 C49.3528,60.4261538 54.9976,60.1924615 58.7176,58.0558462 L58.7176,58.0558462 L100.7104,33.9640769 C102.712,32.8170769 103.8184,31.3147692 103.744,29.8386923 L103.744,29.8386923 C103.6888,28.7083846 102.9544,27.7092308 101.6272,26.9461538 L101.6272,26.9461538 L57.7984,1.80515385 C56.3464,0.970538462 54.3952,0.560384615 52.3504,0.560384615 L52.3504,0.560384615 C49.8736,0.560384615 47.2576,1.15892308 45.22,2.32976923" id="path-41"></path>
        <polygon id="path-43" points="0.0275 4.168 0.0275 7.732 7.355 3.6712 7.355 0.1048"></polygon>
        <path d="M0,0.597931034 L0,20.1496552 C0.0553943662,22.0468966 1.29333803,23.7944828 3.49707042,25.0665517 L3.49707042,25.0665517 L75.8397042,66.9289655 C78.2337042,68.3144828 81.4417606,68.9951724 84.8063662,69 L84.8063662,69 L84.8713944,69 C88.9513099,68.9951724 93.2528028,67.9982759 96.6101831,66.0551724 L96.6101831,66.0551724 L165.930211,25.9427586 C168.748099,24.3134483 170.474958,22.2472414 170.850676,20.1496552 L170.850676,20.1496552 L170.93738,20.1496552 L170.93738,0.597931034 L0,0.597931034 Z" id="path-45"></path>
        <path d="M86.0948873,0.990761905 C82.0101549,0.990761905 77.6918028,1.98392857 74.3296056,3.92216667 L74.3296056,3.92216667 L5.00476056,43.8845 C1.8713662,45.692881 0.0602112676,48.0471429 0,50.3797619 L0,50.3797619 L0,50.6274524 C0.0553943662,52.52 1.29333803,54.2586429 3.49707042,55.5283571 L3.49707042,55.5283571 L75.8397042,97.2341429 C81.1527465,100.293 90.4662254,99.9034286 96.6101831,96.3612143 L96.6101831,96.3612143 L165.930211,56.4012857 C169.078056,54.5856905 170.881986,52.2338333 170.93738,49.8964048 L170.93738,49.8964048 L170.93738,49.6727619 C170.93738,49.6342857 170.934972,49.5934048 170.932563,49.5549286 L170.932563,49.5549286 C170.838634,47.6768095 169.632,46.0199286 167.437901,44.7574286 L167.437901,44.7574286 L95.0952676,3.05164286 C92.6940423,1.6665 89.4739437,0.990761905 86.0948873,0.990761905 Z" id="path-47"></path>
        <path d="M45.22,1.77092308 L3.2248,25.8626923 C1.2592,26.9906154 0.1528,28.4714615 0.1912,29.9284615 L0.1912,29.9284615 C0.2272,31.0683077 0.9784,32.1175385 2.308,32.883 L2.308,32.883 L46.1368,58.0216154 C49.3528,59.8673077 54.9976,59.6336154 58.7176,57.4993846 L58.7176,57.4993846 L100.7104,33.4076154 C102.712,32.2606154 103.8184,30.7559231 103.744,29.2822308 L103.744,29.2822308 C103.6888,28.1495385 102.9544,27.1503846 101.6272,26.3873077 L101.6272,26.3873077 L57.7984,1.24630769 C56.3464,0.411692308 54.3952,0.00392307692 52.3504,0.00392307692 L52.3504,0.00392307692 C49.8736,0.00392307692 47.2576,0.602461538 45.22,1.77092308" id="path-49"></path>
        <path d="M45.22,2.32976923 L3.2248,26.4191538 C1.2592,27.5494615 0.1528,29.0303077 0.1912,30.4849231 L0.1912,30.4849231 C0.2272,31.6271538 0.9784,32.674 2.308,33.4394615 L2.308,33.4394615 L46.1368,58.5804615 C49.3528,60.4261538 54.9976,60.1924615 58.7176,58.0558462 L58.7176,58.0558462 L100.7104,33.9640769 C102.712,32.8170769 103.8184,31.3147692 103.744,29.8386923 L103.744,29.8386923 C103.6888,28.7083846 102.9544,27.7092308 101.6272,26.9461538 L101.6272,26.9461538 L57.7984,1.80515385 C56.3464,0.970538462 54.3952,0.560384615 52.3504,0.560384615 L52.3504,0.560384615 C49.8736,0.560384615 47.2576,1.15892308 45.22,2.32976923" id="path-51"></path>
        <polygon id="path-53" points="0.0275 4.168 0.0275 7.732 7.355 3.6712 7.355 0.1048"></polygon>
        <path d="M22.3923333,13.3473451 C-7.46533333,30.6502122 -7.46533333,58.711701 22.396,76.0182488 L22.396,76.0182488 C52.261,93.3247966 100.675667,93.3247966 130.537,76.0219295 L130.537,76.0219295 C160.398333,58.711701 160.398333,30.6538929 130.533333,13.3473451 L130.533333,13.3473451 C115.602667,4.69407119 96.0336667,0.365593898 76.461,0.365593898 L76.461,0.365593898 C56.8956667,0.365593898 37.323,4.69407119 22.3923333,13.3473451" id="path-55"></path>
        <linearGradient x1="0.00029970931%" y1="50.001061%" x2="100.001049%" y2="50.001061%" id="linearGradient-57">
            <stop stop-color="#14A3DB" offset="0%"></stop>
            <stop stop-color="#57F2E8" offset="100%"></stop>
        </linearGradient>
        <path d="M22.3923333,13.0921715 C-7.46533333,30.3987193 -7.46533333,58.4565275 22.396,75.7667559 L22.396,75.7667559 C52.261,93.0733037 100.675667,93.0733037 130.537,75.7667559 L130.537,75.7667559 C160.398333,58.4602081 160.398333,30.3987193 130.533333,13.0921715 L130.533333,13.0921715 C115.602667,4.43889763 96.0336667,0.110420339 76.461,0.114101017 L76.461,0.114101017 C56.8956667,0.114101017 37.323,4.43889763 22.3923333,13.0921715" id="path-58"></path>
        <linearGradient x1="0.00029970931%" y1="49.9984291%" x2="100.001049%" y2="49.9984291%" id="linearGradient-60">
            <stop stop-color="#3F50B5" offset="0%"></stop>
            <stop stop-color="#2195F2" offset="100%"></stop>
        </linearGradient>
        <path d="M0.347134846,0.629113333 L0.347203745,47.0132693 C0.321507761,58.0153513 7.48334565,69.0174333 21.8987928,77.4105453 L21.8987928,77.4105453 C50.7039911,94.1708647 97.3972653,94.1708647 126.195122,77.4105453 L126.195122,77.4105453 C140.500443,69.0840453 147.651269,58.1892827 147.74304,47.2760167 L147.74304,47.2760167 L147.754053,47.2760167 L147.754053,0.629113333 L0.347134846,0.629113333 Z" id="path-61"></path>
        <linearGradient x1="-0.000372680604%" y1="49.9996766%" x2="100.000246%" y2="49.9996766%" id="linearGradient-63">
            <stop stop-color="#CC5B4A" offset="0%"></stop>
            <stop stop-color="#FFC09A" offset="100%"></stop>
        </linearGradient>
        <path d="M21.9318305,12.8528509 C-6.8513427,29.359193 -6.8513427,56.1222924 21.9318305,72.6249883 L21.9318305,72.6249883 C50.7150037,89.1349766 97.3862528,89.1349766 126.165755,72.6286345 L126.165755,72.6286345 C154.952599,56.1222924 154.948928,29.3628392 126.165755,12.8528509 L126.165755,12.8528509 C111.776004,4.60150292 92.9114807,0.474005848 74.0506282,0.474005848 L74.0506282,0.474005848 C55.186105,0.474005848 36.3252525,4.60150292 21.9318305,12.8528509" id="path-64"></path>
        <linearGradient x1="13.8990773%" y1="49.999698%" x2="166.018995%" y2="49.999698%" id="linearGradient-66">
            <stop stop-color="#149ADB" offset="0%"></stop>
            <stop stop-color="#57F2E8" offset="100%"></stop>
        </linearGradient>
        <path d="M0.830135546,0.476125 L0.830161706,4.373 C0.815546627,13.6095 6.9246498,22.846 19.2268929,29.893 L19.2268929,29.893 C43.8058026,43.9725 83.6501627,43.9725 108.225419,29.893 L108.225419,29.893 C120.42901,22.904 126.530806,13.7545 126.607535,4.594125 L126.607535,4.594125 L126.614842,4.594125 L126.614842,0.476125 L0.830135546,0.476125 Z" id="path-67"></path>
        <linearGradient x1="7.23778523%" y1="50.0021536%" x2="98.366907%" y2="50.0021536%" id="linearGradient-69">
            <stop stop-color="#3F50B5" offset="0%"></stop>
            <stop stop-color="#2195F2" offset="100%"></stop>
        </linearGradient>
        <path d="M19.2268929,10.8799417 C-5.3483631,25.1213819 -5.3483631,48.2128338 19.2268929,62.4579417 L19.2268929,62.4579417 C43.8058026,76.6993819 83.6501627,76.6993819 108.225419,62.4579417 L108.225419,62.4579417 C132.797021,48.2128338 132.797021,25.1250496 108.225419,10.8799417 L108.225419,10.8799417 C95.9341369,3.75738776 79.8283194,0.199778426 63.722502,0.199778426 L63.722502,0.199778426 C47.6166845,0.199778426 31.5108671,3.75738776 19.2268929,10.8799417" id="path-70"></path>
        <linearGradient x1="50.0001071%" y1="-40.4029894%" x2="50.0001071%" y2="70.7944407%" id="linearGradient-72">
            <stop stop-color="#14A3DB" offset="0%"></stop>
            <stop stop-color="#57F2E8" offset="100%"></stop>
        </linearGradient>
        <path d="M2.4225,1.265 L2.4225,31.6506667 C2.4225,31.9256667 2.595,32.252 2.805,32.3693333 L2.805,32.3693333 L2.86875,32.4023333 C3.07875,32.5196667 3.25125,32.3913333 3.25125,32.1163333 L3.25125,32.1163333 L3.25125,1.73066667 C3.25125,1.45566667 3.07875,1.133 2.86875,1.012 L2.86875,1.012 L2.805,0.982666667 C2.7525,0.949666667 2.7,0.935 2.65125,0.935 L2.65125,0.935 C2.51625,0.935 2.4225,1.05966667 2.4225,1.265" id="path-73"></path>
    </defs>
    <g id="Page-1" stroke="none" stroke-width="1" fill="none" fill-rule="evenodd">
        <g id="HD" transform="translate(-324.000000, -1107.000000)">
            <g id="Ecosystem" transform="translate(321.000000, 958.000000)">
                <g id="Arrows" transform="translate(0.000000, 108.000000)">
                    <g id="Graphics" transform="translate(3.000000, 41.000000)">
                        <g id="illu-/-blue-square" transform="translate(0.000000, 213.000000)">
                            <g id="Group-18">
                                <g id="Group-3" transform="translate(0.000000, 49.000000)">
                                    <mask id="mask-2" fill="white">
                                        <use xlink:href="#path-1"></use>
                                    </mask>
                                    <g id="Clip-2"></g>
                                    <path d="M0,0.597931034 L0,20.1496552 C0.0553943662,22.0468966 1.29333803,23.7944828 3.49707042,25.0665517 L75.8397042,66.9289655 C78.2337042,68.3144828 81.4417606,68.9951724 84.8063662,69 L84.8713944,69 C88.9513099,68.9951724 93.2528028,67.9982759 96.6101831,66.0551724 L165.930211,25.9427586 C168.748099,24.3134483 170.474958,22.2472414 170.850676,20.1496552 L170.93738,20.1496552 L170.93738,0.597931034 L0,0.597931034 Z" id="Fill-1" fill="url(#linearGradient-3)" mask="url(#mask-2)"></path>
                                </g>
                                <g id="Group-6">
                                    <mask id="mask-5" fill="white">
                                        <use xlink:href="#path-4"></use>
                                    </mask>
                                    <g id="Clip-5"></g>
                                    <path d="M86.0948873,1 C82.0101549,1 77.6918028,1.99316667 74.3296056,3.93140476 L74.3296056,3.93140476 L5.00476056,43.8937381 C1.8713662,45.702119 0.0602112676,48.056381 0,50.389 L0,50.389 L0,50.6366905 C0.0553943662,52.5292381 1.29333803,54.267881 3.49707042,55.5375952 L3.49707042,55.5375952 L75.8397042,97.243381 C81.1527465,100.302238 90.4662254,99.9126667 96.6101831,96.3704524 L96.6101831,96.3704524 L165.930211,56.4105238 C169.078056,54.5949286 170.881986,52.2430714 170.93738,49.9056429 L170.93738,49.9056429 L170.93738,49.682 C170.93738,49.6435238 170.934972,49.6026429 170.932563,49.5641667 L170.932563,49.5641667 C170.838634,47.6860476 169.632,46.0291667 167.437901,44.7666667 L167.437901,44.7666667 L95.0952676,3.06088095 C92.6940423,1.6757381 89.4739437,1 86.0948873,1 Z" id="Fill-4" fill="url(#linearGradient-6)" mask="url(#mask-5)"></path>
                                </g>
                                <g id="Group-9" transform="translate(34.000000, 23.000000)">
                                    <mask id="mask-8" fill="white">
                                        <use xlink:href="#path-7"></use>
                                    </mask>
                                    <g id="Clip-8"></g>
                                    <path d="M45.22,1.77092308 L3.2248,25.8626923 C1.2592,26.9906154 0.1528,28.4714615 0.1912,29.9284615 L0.1912,29.9284615 C0.2272,31.0683077 0.9784,32.1175385 2.308,32.883 L2.308,32.883 L46.1368,58.0216154 C49.3528,59.8673077 54.9976,59.6336154 58.7176,57.4993846 L58.7176,57.4993846 L100.7104,33.4076154 C102.712,32.2606154 103.8184,30.7559231 103.744,29.2822308 L103.744,29.2822308 C103.6888,28.1495385 102.9544,27.1503846 101.6272,26.3873077 L101.6272,26.3873077 L57.7984,1.24630769 C56.3464,0.411692308 54.3952,0.00392307692 52.3504,0.00392307692 L52.3504,0.00392307692 C49.8736,0.00392307692 47.2576,0.602461538 45.22,1.77092308" id="Fill-7" fill="url(#linearGradient-9)" mask="url(#mask-8)"></path>
                                </g>
                                <g id="Group-12" transform="translate(34.000000, 20.000000)">
                                    <mask id="mask-11" fill="white">
                                        <use xlink:href="#path-10"></use>
                                    </mask>
                                    <g id="Clip-11"></g>
                                    <path d="M45.0297674,2.76938462 L3.03456739,26.8587692 C1.06896739,27.9890769 -0.0374326107,29.4699231 0.000967389309,30.9245385 L0.000967389309,30.9245385 C0.0369673893,32.0667692 0.788167389,33.1136154 2.11776739,33.8790769 L2.11776739,33.8790769 L45.9465674,59.0200769 C49.1625674,60.8657692 54.8073674,60.6320769 58.5273674,58.4954615 L58.5273674,58.4954615 L100.520167,34.4036923 C102.521767,33.2566923 103.628167,31.7543846 103.553767,30.2783077 L103.553767,30.2783077 C103.498567,29.148 102.764167,28.1488462 101.436967,27.3857692 L101.436967,27.3857692 L57.6081674,2.24476923 C56.1561674,1.41015385 54.2049674,1 52.1601674,1 L52.1601674,1 C49.6833674,1 47.0673674,1.59853846 45.0297674,2.76938462" id="Fill-10" fill="url(#linearGradient-12)" mask="url(#mask-11)"></path>
                                </g>
                                <path d="M82.3192336,52.2674081 C80.5602555,51.290619 80.5602555,49.7069632 82.3192336,48.7325919 C84.0756988,47.7558027 86.9252433,47.7558027 88.6817086,48.7325919 C90.4381738,49.7069632 90.4406867,51.290619 88.6817086,52.2674081 C86.9252433,53.2441973 84.0756988,53.2441973 82.3192336,52.2674081 Z" id="Fill-13" fill="#CF604E"></path>
                                <g id="Group-17" transform="translate(154.000000, 67.000000)">
                                    <mask id="mask-14" fill="white">
                                        <use xlink:href="#path-13"></use>
                                    </mask>
                                    <g id="Clip-16"></g>
                                    <polygon id="Fill-15" fill="#D7715B" mask="url(#mask-14)" points="0.0275 4.168 0.0275 7.732 7.355 3.6712 7.355 0.1048"></polygon>
                                </g>
                            </g>
                        </g>
                        <g id="illu-/-blue-square" transform="translate(311.000000, 263.000000)">
                            <g id="Group-18">
                                <g id="Group-3" transform="translate(0.000000, 49.000000)">
                                    <mask id="mask-16" fill="white">
                                        <use xlink:href="#path-15"></use>
                                    </mask>
                                    <g id="Clip-2"></g>
                                    <path d="M0,0.597931034 L0,20.1496552 C0.0553943662,22.0468966 1.29333803,23.7944828 3.49707042,25.0665517 L75.8397042,66.9289655 C78.2337042,68.3144828 81.4417606,68.9951724 84.8063662,69 L84.8713944,69 C88.9513099,68.9951724 93.2528028,67.9982759 96.6101831,66.0551724 L165.930211,25.9427586 C168.748099,24.3134483 170.474958,22.2472414 170.850676,20.1496552 L170.93738,20.1496552 L170.93738,0.597931034 L0,0.597931034 Z" id="Fill-1" fill="url(#linearGradient-3)" mask="url(#mask-16)"></path>
                                </g>
                                <g id="Group-6">
                                    <mask id="mask-18" fill="white">
                                        <use xlink:href="#path-17"></use>
                                    </mask>
                                    <g id="Clip-5"></g>
                                    <path d="M86.0948873,1 C82.0101549,1 77.6918028,1.99316667 74.3296056,3.93140476 L74.3296056,3.93140476 L5.00476056,43.8937381 C1.8713662,45.702119 0.0602112676,48.056381 0,50.389 L0,50.389 L0,50.6366905 C0.0553943662,52.5292381 1.29333803,54.267881 3.49707042,55.5375952 L3.49707042,55.5375952 L75.8397042,97.243381 C81.1527465,100.302238 90.4662254,99.9126667 96.6101831,96.3704524 L96.6101831,96.3704524 L165.930211,56.4105238 C169.078056,54.5949286 170.881986,52.2430714 170.93738,49.9056429 L170.93738,49.9056429 L170.93738,49.682 C170.93738,49.6435238 170.934972,49.6026429 170.932563,49.5641667 L170.932563,49.5641667 C170.838634,47.6860476 169.632,46.0291667 167.437901,44.7666667 L167.437901,44.7666667 L95.0952676,3.06088095 C92.6940423,1.6757381 89.4739437,1 86.0948873,1 Z" id="Fill-4" fill="url(#linearGradient-6)" mask="url(#mask-18)"></path>
                                </g>
                                <g id="Group-9" transform="translate(34.000000, 23.000000)">
                                    <mask id="mask-20" fill="white">
                                        <use xlink:href="#path-19"></use>
                                    </mask>
                                    <g id="Clip-8"></g>
                                    <path d="M45.22,1.77092308 L3.2248,25.8626923 C1.2592,26.9906154 0.1528,28.4714615 0.1912,29.9284615 L0.1912,29.9284615 C0.2272,31.0683077 0.9784,32.1175385 2.308,32.883 L2.308,32.883 L46.1368,58.0216154 C49.3528,59.8673077 54.9976,59.6336154 58.7176,57.4993846 L58.7176,57.4993846 L100.7104,33.4076154 C102.712,32.2606154 103.8184,30.7559231 103.744,29.2822308 L103.744,29.2822308 C103.6888,28.1495385 102.9544,27.1503846 101.6272,26.3873077 L101.6272,26.3873077 L57.7984,1.24630769 C56.3464,0.411692308 54.3952,0.00392307692 52.3504,0.00392307692 L52.3504,0.00392307692 C49.8736,0.00392307692 47.2576,0.602461538 45.22,1.77092308" id="Fill-7" fill="url(#linearGradient-9)" mask="url(#mask-20)"></path>
                                </g>
                                <g id="Group-12" transform="translate(34.000000, 20.000000)">
                                    <mask id="mask-22" fill="white">
                                        <use xlink:href="#path-21"></use>
                                    </mask>
                                    <g id="Clip-11"></g>
                                    <path d="M45.0297674,2.76938462 L3.03456739,26.8587692 C1.06896739,27.9890769 -0.0374326107,29.4699231 0.000967389309,30.9245385 L0.000967389309,30.9245385 C0.0369673893,32.0667692 0.788167389,33.1136154 2.11776739,33.8790769 L2.11776739,33.8790769 L45.9465674,59.0200769 C49.1625674,60.8657692 54.8073674,60.6320769 58.5273674,58.4954615 L58.5273674,58.4954615 L100.520167,34.4036923 C102.521767,33.2566923 103.628167,31.7543846 103.553767,30.2783077 L103.553767,30.2783077 C103.498567,29.148 102.764167,28.1488462 101.436967,27.3857692 L101.436967,27.3857692 L57.6081674,2.24476923 C56.1561674,1.41015385 54.2049674,1 52.1601674,1 L52.1601674,1 C49.6833674,1 47.0673674,1.59853846 45.0297674,2.76938462" id="Fill-10" fill="url(#linearGradient-12)" mask="url(#mask-22)"></path>
                                </g>
                                <path d="M82.3192336,52.2674081 C80.5602555,51.290619 80.5602555,49.7069632 82.3192336,48.7325919 C84.0756988,47.7558027 86.9252433,47.7558027 88.6817086,48.7325919 C90.4381738,49.7069632 90.4406867,51.290619 88.6817086,52.2674081 C86.9252433,53.2441973 84.0756988,53.2441973 82.3192336,52.2674081 Z" id="Fill-13" fill="#CF604E"></path>
                                <g id="Group-17" transform="translate(154.000000, 67.000000)">
                                    <mask id="mask-24" fill="white">
                                        <use xlink:href="#path-23"></use>
                                    </mask>
                                    <g id="Clip-16"></g>
                                    <polygon id="Fill-15" fill="#D7715B" mask="url(#mask-24)" points="0.0275 4.168 0.0275 7.732 7.355 3.6712 7.355 0.1048"></polygon>
                                </g>
                            </g>
                        </g>
                        <g id="illu-/-blue-square" transform="translate(622.000000, 213.000000)">
                            <g id="Group-18">
                                <g id="Group-3" transform="translate(0.000000, 49.000000)">
                                    <mask id="mask-26" fill="white">
                                        <use xlink:href="#path-25"></use>
                                    </mask>
                                    <g id="Clip-2"></g>
                                    <path d="M0,0.597931034 L0,20.1496552 C0.0553943662,22.0468966 1.29333803,23.7944828 3.49707042,25.0665517 L75.8397042,66.9289655 C78.2337042,68.3144828 81.4417606,68.9951724 84.8063662,69 L84.8713944,69 C88.9513099,68.9951724 93.2528028,67.9982759 96.6101831,66.0551724 L165.930211,25.9427586 C168.748099,24.3134483 170.474958,22.2472414 170.850676,20.1496552 L170.93738,20.1496552 L170.93738,0.597931034 L0,0.597931034 Z" id="Fill-1" fill="url(#linearGradient-3)" mask="url(#mask-26)"></path>
                                </g>
                                <g id="Group-6">
                                    <mask id="mask-28" fill="white">
                                        <use xlink:href="#path-27"></use>
                                    </mask>
                                    <g id="Clip-5"></g>
                                    <path d="M86.0948873,1 C82.0101549,1 77.6918028,1.99316667 74.3296056,3.93140476 L74.3296056,3.93140476 L5.00476056,43.8937381 C1.8713662,45.702119 0.0602112676,48.056381 0,50.389 L0,50.389 L0,50.6366905 C0.0553943662,52.5292381 1.29333803,54.267881 3.49707042,55.5375952 L3.49707042,55.5375952 L75.8397042,97.243381 C81.1527465,100.302238 90.4662254,99.9126667 96.6101831,96.3704524 L96.6101831,96.3704524 L165.930211,56.4105238 C169.078056,54.5949286 170.881986,52.2430714 170.93738,49.9056429 L170.93738,49.9056429 L170.93738,49.682 C170.93738,49.6435238 170.934972,49.6026429 170.932563,49.5641667 L170.932563,49.5641667 C170.838634,47.6860476 169.632,46.0291667 167.437901,44.7666667 L167.437901,44.7666667 L95.0952676,3.06088095 C92.6940423,1.6757381 89.4739437,1 86.0948873,1 Z" id="Fill-4" fill="url(#linearGradient-6)" mask="url(#mask-28)"></path>
                                </g>
                                <g id="Group-9" transform="translate(34.000000, 23.000000)">
                                    <mask id="mask-30" fill="white">
                                        <use xlink:href="#path-29"></use>
                                    </mask>
                                    <g id="Clip-8"></g>
                                    <path d="M45.22,1.77092308 L3.2248,25.8626923 C1.2592,26.9906154 0.1528,28.4714615 0.1912,29.9284615 L0.1912,29.9284615 C0.2272,31.0683077 0.9784,32.1175385 2.308,32.883 L2.308,32.883 L46.1368,58.0216154 C49.3528,59.8673077 54.9976,59.6336154 58.7176,57.4993846 L58.7176,57.4993846 L100.7104,33.4076154 C102.712,32.2606154 103.8184,30.7559231 103.744,29.2822308 L103.744,29.2822308 C103.6888,28.1495385 102.9544,27.1503846 101.6272,26.3873077 L101.6272,26.3873077 L57.7984,1.24630769 C56.3464,0.411692308 54.3952,0.00392307692 52.3504,0.00392307692 L52.3504,0.00392307692 C49.8736,0.00392307692 47.2576,0.602461538 45.22,1.77092308" id="Fill-7" fill="url(#linearGradient-9)" mask="url(#mask-30)"></path>
                                </g>
                                <g id="Group-12" transform="translate(34.000000, 20.000000)">
                                    <mask id="mask-32" fill="white">
                                        <use xlink:href="#path-31"></use>
                                    </mask>
                                    <g id="Clip-11"></g>
                                    <path d="M45.0297674,2.76938462 L3.03456739,26.8587692 C1.06896739,27.9890769 -0.0374326107,29.4699231 0.000967389309,30.9245385 L0.000967389309,30.9245385 C0.0369673893,32.0667692 0.788167389,33.1136154 2.11776739,33.8790769 L2.11776739,33.8790769 L45.9465674,59.0200769 C49.1625674,60.8657692 54.8073674,60.6320769 58.5273674,58.4954615 L58.5273674,58.4954615 L100.520167,34.4036923 C102.521767,33.2566923 103.628167,31.7543846 103.553767,30.2783077 L103.553767,30.2783077 C103.498567,29.148 102.764167,28.1488462 101.436967,27.3857692 L101.436967,27.3857692 L57.6081674,2.24476923 C56.1561674,1.41015385 54.2049674,1 52.1601674,1 L52.1601674,1 C49.6833674,1 47.0673674,1.59853846 45.0297674,2.76938462" id="Fill-10" fill="url(#linearGradient-12)" mask="url(#mask-32)"></path>
                                </g>
                                <path d="M82.3192336,52.2674081 C80.5602555,51.290619 80.5602555,49.7069632 82.3192336,48.7325919 C84.0756988,47.7558027 86.9252433,47.7558027 88.6817086,48.7325919 C90.4381738,49.7069632 90.4406867,51.290619 88.6817086,52.2674081 C86.9252433,53.2441973 84.0756988,53.2441973 82.3192336,52.2674081 Z" id="Fill-13" fill="#CF604E"></path>
                                <g id="Group-17" transform="translate(154.000000, 67.000000)">
                                    <mask id="mask-34" fill="white">
                                        <use xlink:href="#path-33"></use>
                                    </mask>
                                    <g id="Clip-16"></g>
                                    <polygon id="Fill-15" fill="#D7715B" mask="url(#mask-34)" points="0.0275 4.168 0.0275 7.732 7.355 3.6712 7.355 0.1048"></polygon>
                                </g>
                            </g>
                        </g>
                        <g id="illu-/-blue-square" transform="translate(573.000000, 0.000000)">
                            <g id="Group-18">
                                <g id="Group-3" transform="translate(0.000000, 49.000000)">
                                    <mask id="mask-36" fill="white">
                                        <use xlink:href="#path-35"></use>
                                    </mask>
                                    <g id="Clip-2"></g>
                                    <path d="M0,0.597931034 L0,20.1496552 C0.0553943662,22.0468966 1.29333803,23.7944828 3.49707042,25.0665517 L75.8397042,66.9289655 C78.2337042,68.3144828 81.4417606,68.9951724 84.8063662,69 L84.8713944,69 C88.9513099,68.9951724 93.2528028,67.9982759 96.6101831,66.0551724 L165.930211,25.9427586 C168.748099,24.3134483 170.474958,22.2472414 170.850676,20.1496552 L170.93738,20.1496552 L170.93738,0.597931034 L0,0.597931034 Z" id="Fill-1" fill="url(#linearGradient-3)" mask="url(#mask-36)"></path>
                                </g>
                                <g id="Group-6">
                                    <mask id="mask-38" fill="white">
                                        <use xlink:href="#path-37"></use>
                                    </mask>
                                    <g id="Clip-5"></g>
                                    <path d="M86.0948873,1 C82.0101549,1 77.6918028,1.99316667 74.3296056,3.93140476 L74.3296056,3.93140476 L5.00476056,43.8937381 C1.8713662,45.702119 0.0602112676,48.056381 0,50.389 L0,50.389 L0,50.6366905 C0.0553943662,52.5292381 1.29333803,54.267881 3.49707042,55.5375952 L3.49707042,55.5375952 L75.8397042,97.243381 C81.1527465,100.302238 90.4662254,99.9126667 96.6101831,96.3704524 L96.6101831,96.3704524 L165.930211,56.4105238 C169.078056,54.5949286 170.881986,52.2430714 170.93738,49.9056429 L170.93738,49.9056429 L170.93738,49.682 C170.93738,49.6435238 170.934972,49.6026429 170.932563,49.5641667 L170.932563,49.5641667 C170.838634,47.6860476 169.632,46.0291667 167.437901,44.7666667 L167.437901,44.7666667 L95.0952676,3.06088095 C92.6940423,1.6757381 89.4739437,1 86.0948873,1 Z" id="Fill-4" fill="url(#linearGradient-6)" mask="url(#mask-38)"></path>
                                </g>
                                <g id="Group-9" transform="translate(34.000000, 23.000000)">
                                    <mask id="mask-40" fill="white">
                                        <use xlink:href="#path-39"></use>
                                    </mask>
                                    <g id="Clip-8"></g>
                                    <path d="M45.22,1.77092308 L3.2248,25.8626923 C1.2592,26.9906154 0.1528,28.4714615 0.1912,29.9284615 L0.1912,29.9284615 C0.2272,31.0683077 0.9784,32.1175385 2.308,32.883 L2.308,32.883 L46.1368,58.0216154 C49.3528,59.8673077 54.9976,59.6336154 58.7176,57.4993846 L58.7176,57.4993846 L100.7104,33.4076154 C102.712,32.2606154 103.8184,30.7559231 103.744,29.2822308 L103.744,29.2822308 C103.6888,28.1495385 102.9544,27.1503846 101.6272,26.3873077 L101.6272,26.3873077 L57.7984,1.24630769 C56.3464,0.411692308 54.3952,0.00392307692 52.3504,0.00392307692 L52.3504,0.00392307692 C49.8736,0.00392307692 47.2576,0.602461538 45.22,1.77092308" id="Fill-7" fill="url(#linearGradient-9)" mask="url(#mask-40)"></path>
                                </g>
                                <g id="Group-12" transform="translate(34.000000, 20.000000)">
                                    <mask id="mask-42" fill="white">
                                        <use xlink:href="#path-41"></use>
                                    </mask>
                                    <g id="Clip-11"></g>
                                    <path d="M45.0297674,2.76938462 L3.03456739,26.8587692 C1.06896739,27.9890769 -0.0374326107,29.4699231 0.000967389309,30.9245385 L0.000967389309,30.9245385 C0.0369673893,32.0667692 0.788167389,33.1136154 2.11776739,33.8790769 L2.11776739,33.8790769 L45.9465674,59.0200769 C49.1625674,60.8657692 54.8073674,60.6320769 58.5273674,58.4954615 L58.5273674,58.4954615 L100.520167,34.4036923 C102.521767,33.2566923 103.628167,31.7543846 103.553767,30.2783077 L103.553767,30.2783077 C103.498567,29.148 102.764167,28.1488462 101.436967,27.3857692 L101.436967,27.3857692 L57.6081674,2.24476923 C56.1561674,1.41015385 54.2049674,1 52.1601674,1 L52.1601674,1 C49.6833674,1 47.0673674,1.59853846 45.0297674,2.76938462" id="Fill-10" fill="url(#linearGradient-12)" mask="url(#mask-42)"></path>
                                </g>
                                <path d="M82.3192336,52.2674081 C80.5602555,51.290619 80.5602555,49.7069632 82.3192336,48.7325919 C84.0756988,47.7558027 86.9252433,47.7558027 88.6817086,48.7325919 C90.4381738,49.7069632 90.4406867,51.290619 88.6817086,52.2674081 C86.9252433,53.2441973 84.0756988,53.2441973 82.3192336,52.2674081 Z" id="Fill-13" fill="#CF604E"></path>
                                <g id="Group-17" transform="translate(154.000000, 67.000000)">
                                    <mask id="mask-44" fill="white">
                                        <use xlink:href="#path-43"></use>
                                    </mask>
                                    <g id="Clip-16"></g>
                                    <polygon id="Fill-15" fill="#D7715B" mask="url(#mask-44)" points="0.0275 4.168 0.0275 7.732 7.355 3.6712 7.355 0.1048"></polygon>
                                </g>
                            </g>
                        </g>
                        <g id="illu-/-blue-square" transform="translate(49.000000, 0.000000)">
                            <g id="Group-18">
                                <g id="Group-3" transform="translate(0.000000, 49.000000)">
                                    <mask id="mask-46" fill="white">
                                        <use xlink:href="#path-45"></use>
                                    </mask>
                                    <g id="Clip-2"></g>
                                    <path d="M0,0.597931034 L0,20.1496552 C0.0553943662,22.0468966 1.29333803,23.7944828 3.49707042,25.0665517 L75.8397042,66.9289655 C78.2337042,68.3144828 81.4417606,68.9951724 84.8063662,69 L84.8713944,69 C88.9513099,68.9951724 93.2528028,67.9982759 96.6101831,66.0551724 L165.930211,25.9427586 C168.748099,24.3134483 170.474958,22.2472414 170.850676,20.1496552 L170.93738,20.1496552 L170.93738,0.597931034 L0,0.597931034 Z" id="Fill-1" fill="url(#linearGradient-3)" mask="url(#mask-46)"></path>
                                </g>
                                <g id="Group-6">
                                    <mask id="mask-48" fill="white">
                                        <use xlink:href="#path-47"></use>
                                    </mask>
                                    <g id="Clip-5"></g>
                                    <path d="M86.0948873,1 C82.0101549,1 77.6918028,1.99316667 74.3296056,3.93140476 L74.3296056,3.93140476 L5.00476056,43.8937381 C1.8713662,45.702119 0.0602112676,48.056381 0,50.389 L0,50.389 L0,50.6366905 C0.0553943662,52.5292381 1.29333803,54.267881 3.49707042,55.5375952 L3.49707042,55.5375952 L75.8397042,97.243381 C81.1527465,100.302238 90.4662254,99.9126667 96.6101831,96.3704524 L96.6101831,96.3704524 L165.930211,56.4105238 C169.078056,54.5949286 170.881986,52.2430714 170.93738,49.9056429 L170.93738,49.9056429 L170.93738,49.682 C170.93738,49.6435238 170.934972,49.6026429 170.932563,49.5641667 L170.932563,49.5641667 C170.838634,47.6860476 169.632,46.0291667 167.437901,44.7666667 L167.437901,44.7666667 L95.0952676,3.06088095 C92.6940423,1.6757381 89.4739437,1 86.0948873,1 Z" id="Fill-4" fill="url(#linearGradient-6)" mask="url(#mask-48)"></path>
                                </g>
                                <g id="Group-9" transform="translate(34.000000, 23.000000)">
                                    <mask id="mask-50" fill="white">
                                        <use xlink:href="#path-49"></use>
                                    </mask>
                                    <g id="Clip-8"></g>
                                    <path d="M45.22,1.77092308 L3.2248,25.8626923 C1.2592,26.9906154 0.1528,28.4714615 0.1912,29.9284615 L0.1912,29.9284615 C0.2272,31.0683077 0.9784,32.1175385 2.308,32.883 L2.308,32.883 L46.1368,58.0216154 C49.3528,59.8673077 54.9976,59.6336154 58.7176,57.4993846 L58.7176,57.4993846 L100.7104,33.4076154 C102.712,32.2606154 103.8184,30.7559231 103.744,29.2822308 L103.744,29.2822308 C103.6888,28.1495385 102.9544,27.1503846 101.6272,26.3873077 L101.6272,26.3873077 L57.7984,1.24630769 C56.3464,0.411692308 54.3952,0.00392307692 52.3504,0.00392307692 L52.3504,0.00392307692 C49.8736,0.00392307692 47.2576,0.602461538 45.22,1.77092308" id="Fill-7" fill="url(#linearGradient-9)" mask="url(#mask-50)"></path>
                                </g>
                                <g id="Group-12" transform="translate(34.000000, 20.000000)">
                                    <mask id="mask-52" fill="white">
                                        <use xlink:href="#path-51"></use>
                                    </mask>
                                    <g id="Clip-11"></g>
                                    <path d="M45.0297674,2.76938462 L3.03456739,26.8587692 C1.06896739,27.9890769 -0.0374326107,29.4699231 0.000967389309,30.9245385 L0.000967389309,30.9245385 C0.0369673893,32.0667692 0.788167389,33.1136154 2.11776739,33.8790769 L2.11776739,33.8790769 L45.9465674,59.0200769 C49.1625674,60.8657692 54.8073674,60.6320769 58.5273674,58.4954615 L58.5273674,58.4954615 L100.520167,34.4036923 C102.521767,33.2566923 103.628167,31.7543846 103.553767,30.2783077 L103.553767,30.2783077 C103.498567,29.148 102.764167,28.1488462 101.436967,27.3857692 L101.436967,27.3857692 L57.6081674,2.24476923 C56.1561674,1.41015385 54.2049674,1 52.1601674,1 L52.1601674,1 C49.6833674,1 47.0673674,1.59853846 45.0297674,2.76938462" id="Fill-10" fill="url(#linearGradient-12)" mask="url(#mask-52)"></path>
                                </g>
                                <path d="M82.3192336,52.2674081 C80.5602555,51.290619 80.5602555,49.7069632 82.3192336,48.7325919 C84.0756988,47.7558027 86.9252433,47.7558027 88.6817086,48.7325919 C90.4381738,49.7069632 90.4406867,51.290619 88.6817086,52.2674081 C86.9252433,53.2441973 84.0756988,53.2441973 82.3192336,52.2674081 Z" id="Fill-13" fill="#CF604E"></path>
                                <g id="Group-17" transform="translate(154.000000, 67.000000)">
                                    <mask id="mask-54" fill="white">
                                        <use xlink:href="#path-53"></use>
                                    </mask>
                                    <g id="Clip-16"></g>
                                    <polygon id="Fill-15" fill="#D7715B" mask="url(#mask-54)" points="0.0275 4.168 0.0275 7.732 7.355 3.6712 7.355 0.1048"></polygon>
                                </g>
                            </g>
                        </g>
                        <g id="illu-/-center" fill="" transform="translate(320.000000, 0.000000)">
                            <g id="Group-24" fill="none">
                                <g id="Group-3" transform="translate(0.000000, 59.000000)">
                                    <mask id="mask-56" fill="white">
                                        <use xlink:href="#path-55"></use>
                                    </mask>
                                    <g id="Clip-2"></g>
                                    <path d="M22.3923333,13.3473451 C-7.46533333,30.6502122 -7.46533333,58.711701 22.396,76.0182488 L22.396,76.0182488 C52.261,93.3247966 100.675667,93.3247966 130.537,76.0219295 L130.537,76.0219295 C160.398333,58.711701 160.398333,30.6538929 130.533333,13.3473451 L130.533333,13.3473451 C115.602667,4.69407119 96.0336667,0.365593898 76.461,0.365593898 L76.461,0.365593898 C56.8956667,0.365593898 37.323,4.69407119 22.3923333,13.3473451" id="Fill-1" fill="url(#linearGradient-57)" mask="url(#mask-56)"></path>
                                </g>
                                <g id="Group-6" transform="translate(0.000000, 56.000000)">
                                    <mask id="mask-59" fill="white">
                                        <use xlink:href="#path-58"></use>
                                    </mask>
                                    <g id="Clip-5"></g>
                                    <path d="M22.3923333,13.0921715 C-7.46533333,30.3987193 -7.46533333,58.4565275 22.396,75.7667559 L22.396,75.7667559 C52.261,93.0733037 100.675667,93.0733037 130.537,75.7667559 L130.537,75.7667559 C160.398333,58.4602081 160.398333,30.3987193 130.533333,13.0921715 L130.533333,13.0921715 C115.602667,4.43889763 96.0336667,0.110420339 76.461,0.114101017 L76.461,0.114101017 C56.8956667,0.114101017 37.323,4.43889763 22.3923333,13.0921715" id="Fill-4" fill="url(#linearGradient-60)" mask="url(#mask-59)"></path>
                                </g>
                                <g id="Group-9" transform="translate(3.000000, 48.000000)">
                                    <mask id="mask-62" fill="white">
                                        <use xlink:href="#path-61"></use>
                                    </mask>
                                    <g id="Clip-8"></g>
                                    <path d="M0.347134846,0.629113333 L0.347203745,47.0132693 C0.321507761,58.0153513 7.48334565,69.0174333 21.8987928,77.4105453 C50.7039911,94.1708647 97.3972653,94.1708647 126.195122,77.4105453 C140.500443,69.0840453 147.651269,58.1892827 147.74304,47.2760167 L147.754053,47.2760167 L147.754053,0.629113333 L0.347134846,0.629113333 Z" id="Fill-7" fill="url(#linearGradient-63)" mask="url(#mask-62)"></path>
                                </g>
                                <g id="Group-12" transform="translate(3.000000, 5.000000)">
                                    <mask id="mask-65" fill="white">
                                        <use xlink:href="#path-64"></use>
                                    </mask>
                                    <g id="Clip-11"></g>
                                    <path d="M21.9318305,12.8528509 C-6.8513427,29.359193 -6.8513427,56.1222924 21.9318305,72.6249883 L21.9318305,72.6249883 C50.7150037,89.1349766 97.3862528,89.1349766 126.165755,72.6286345 L126.165755,72.6286345 C154.952599,56.1222924 154.948928,29.3628392 126.165755,12.8528509 L126.165755,12.8528509 C111.776004,4.60150292 92.9114807,0.474005848 74.0506282,0.474005848 L74.0506282,0.474005848 C55.186105,0.474005848 36.3252525,4.60150292 21.9318305,12.8528509" id="Fill-10" fill="url(#linearGradient-66)" mask="url(#mask-65)"></path>
                                </g>
                                <path d="M76.9981744,4.45463406 C59.6846358,4.45463406 42.3747483,8.27502669 29.1942602,15.9158119 C16.4701603,23.2962825 9.4600392,33.0892468 9.4600392,43.4981668 C9.4600392,53.9070868 16.4701603,63.7037175 29.1942602,71.0805217 C55.5552364,86.3657586 98.4484147,86.3620922 124.80574,71.0805217 C137.533491,63.7037175 144.539961,53.9107532 144.539961,43.4981668 C144.539961,33.0929132 137.52984,23.2962825 124.80574,15.9158119 C111.621601,8.27502669 94.3117131,4.45463406 76.9981744,4.45463406 M77.0018256,83 C59.6043115,83 42.2104486,79.1576089 28.9642407,71.4801597 C16.0867943,64.0190282 9,54.0794078 9,43.4981668 C9,32.9169258 16.0867943,22.9809718 28.9642407,15.5161739 C55.4530054,0.161275352 98.5469946,0.161275352 125.035759,15.5161739 C137.913206,22.9809718 145,32.9205922 145,43.4981668 C145,54.0830742 137.913206,64.0190282 125.035759,71.4838261 C111.796854,79.1576089 94.3993396,83 77.0018256,83" id="Fill-13" fill="#FFFFFF"></path>
                                <g id="Group-17" transform="translate(14.000000, 37.000000)">
                                    <mask id="mask-68" fill="white">
                                        <use xlink:href="#path-67"></use>
                                    </mask>
                                    <g id="Clip-16"></g>
                                    <path d="M0.830135546,0.476125 L0.830161706,4.373 C0.815546627,13.6095 6.9246498,22.846 19.2268929,29.893 L19.2268929,29.893 C43.8058026,43.9725 83.6501627,43.9725 108.225419,29.893 L108.225419,29.893 C120.42901,22.904 126.530806,13.7545 126.607535,4.594125 L126.607535,4.594125 L126.614842,4.594125 L126.614842,0.476125 L0.830135546,0.476125 Z" id="Fill-15" fill="url(#linearGradient-69)" mask="url(#mask-68)"></path>
                                </g>
                                <g id="Group-20" transform="translate(14.000000, 0.000000)">
                                    <mask id="mask-71" fill="white">
                                        <use xlink:href="#path-70"></use>
                                    </mask>
                                    <g id="Clip-19"></g>
                                    <path d="M19.2268929,10.8799417 C-5.3483631,25.1213819 -5.3483631,48.2128338 19.2268929,62.4579417 L19.2268929,62.4579417 C43.8058026,76.6993819 83.6501627,76.6993819 108.225419,62.4579417 L108.225419,62.4579417 C132.797021,48.2128338 132.797021,25.1250496 108.225419,10.8799417 L108.225419,10.8799417 C95.9341369,3.75738776 79.8283194,0.199778426 63.722502,0.199778426 L63.722502,0.199778426 C47.6166845,0.199778426 31.5108671,3.75738776 19.2268929,10.8799417" id="Fill-18" fill="url(#linearGradient-72)" mask="url(#mask-71)"></path>
                                </g>
                                <g id="Group-23" transform="translate(35.000000, 89.000000)">
                                    <mask id="mask-74" fill="white">
                                        <use xlink:href="#path-73"></use>
                                    </mask>
                                    <g id="Clip-22"></g>
                                    <path d="M2.4225,1.265 L2.4225,31.6506667 C2.4225,31.9256667 2.595,32.252 2.805,32.3693333 L2.805,32.3693333 L2.86875,32.4023333 C3.07875,32.5196667 3.25125,32.3913333 3.25125,32.1163333 L3.25125,32.1163333 L3.25125,1.73066667 C3.25125,1.45566667 3.07875,1.133 2.86875,1.012 L2.86875,1.012 L2.805,0.982666667 C2.7525,0.949666667 2.7,0.935 2.65125,0.935 L2.65125,0.935 C2.51625,0.935 2.4225,1.05966667 2.4225,1.265" id="Fill-21" fill="#FFFFFF" mask="url(#mask-74)"></path>
                                </g>
                            </g>
                        </g>
                    </g>
                    <path id="Line-2" d="M398.5,206.5 L403,215.5 L394,215.5 L398.5,206.5 Z M399,284.007299 L398,284.007299 L398,280.007299 L399,280.007299 L399,284.007299 Z M399,276.007299 L398,276.007299 L398,272.007299 L399,272.007299 L399,276.007299 Z M399,268.007299 L398,268.007299 L398,264.007299 L399,264.007299 L399,268.007299 Z M399,260.007299 L398,260.007299 L398,256.007299 L399,256.007299 L399,260.007299 Z M399,252.007299 L398,252.007299 L398,248.007299 L399,248.007299 L399,252.007299 Z M399,244.007299 L398,244.007299 L398,240.007299 L399,240.007299 L399,244.007299 Z M399,236.007299 L398,236.007299 L398,232.007299 L399,232.007299 L399,236.007299 Z M399,228.007299 L398,228.007299 L398,224.007299 L399,224.007299 L399,228.007299 Z M399,220.007299 L398,220.007299 L398,216.007299 L399,216.007299 L399,220.007299 Z" fill="#FFFFFF" fill-rule="nonzero" opacity="0.100000001"></path>
                    <path id="Line-2" d="M308.438686,264.739906 L298.38319,264.369765 L302.701501,256.473425 L308.438686,264.739906 Z M147.321408,177.198779 L147.801221,176.321408 L151.310705,178.240658 L150.830893,179.118029 L147.321408,177.198779 Z M154.340377,181.037278 L154.82019,180.159907 L158.329674,182.079156 L157.849862,182.956528 L154.340377,181.037278 Z M161.359346,184.875777 L161.839159,183.998406 L165.348643,185.917655 L164.868831,186.795026 L161.359346,184.875777 Z M168.378316,188.714276 L168.858128,187.836904 L172.367613,189.756154 L171.8878,190.633525 L168.378316,188.714276 Z M175.397285,192.552774 L175.877097,191.675403 L179.386582,193.594653 L178.906769,194.472024 L175.397285,192.552774 Z M182.416254,196.391273 L182.896066,195.513902 L186.405551,197.433151 L185.925738,198.310522 L182.416254,196.391273 Z M189.435223,200.229772 L189.915035,199.352401 L193.42452,201.27165 L192.944708,202.149021 L189.435223,200.229772 Z M196.454192,204.068271 L196.934004,203.190899 L200.443489,205.110149 L199.963677,205.98752 L196.454192,204.068271 Z M203.473161,207.906769 L203.952974,207.029398 L207.462458,208.948648 L206.982646,209.826019 L203.473161,207.906769 Z M210.49213,211.745268 L210.971943,210.867897 L214.481427,212.787146 L214.001615,213.664517 L210.49213,211.745268 Z M217.511099,215.583767 L217.990912,214.706396 L221.500396,216.625645 L221.020584,217.503016 L217.511099,215.583767 Z M224.530069,219.422265 L225.009881,218.544894 L228.519365,220.464144 L228.039553,221.341515 L224.530069,219.422265 Z M231.549038,223.260764 L232.02885,222.383393 L235.538335,224.302642 L235.058522,225.180014 L231.549038,223.260764 Z M238.568007,227.099263 L239.047819,226.221892 L242.557304,228.141141 L242.077491,229.018512 L238.568007,227.099263 Z M245.586976,230.937762 L246.066788,230.060391 L249.576273,231.97964 L249.09646,232.857011 L245.586976,230.937762 Z M252.605945,234.77626 L253.085757,233.898889 L256.595242,235.818139 L256.11543,236.69551 L252.605945,234.77626 Z M259.624914,238.614759 L260.104726,237.737388 L263.614211,239.656637 L263.134399,240.534009 L259.624914,238.614759 Z M266.643883,242.453258 L267.123696,241.575887 L270.63318,243.495136 L270.153368,244.372507 L266.643883,242.453258 Z M273.662852,246.291757 L274.142665,245.414385 L277.652149,247.333635 L277.172337,248.211006 L273.662852,246.291757 Z M280.681821,250.130255 L281.161634,249.252884 L284.671118,251.172134 L284.191306,252.049505 L280.681821,250.130255 Z M287.700791,253.968754 L288.180603,253.091383 L291.690087,255.010632 L291.210275,255.888003 L287.700791,253.968754 Z M294.71976,257.807253 L295.199572,256.929882 L298.709057,258.849131 L298.229244,259.726502 L294.71976,257.807253 Z" fill="#FFFFFF" fill-rule="nonzero" opacity="0.100000001"></path>
                    <path id="Line-2" d="M651.438686,264.739906 L641.38319,264.369765 L645.701501,256.473425 L651.438686,264.739906 Z M490.321408,177.198779 L490.801221,176.321408 L494.310705,178.240658 L493.830893,179.118029 L490.321408,177.198779 Z M497.340377,181.037278 L497.82019,180.159907 L501.329674,182.079156 L500.849862,182.956528 L497.340377,181.037278 Z M504.359346,184.875777 L504.839159,183.998406 L508.348643,185.917655 L507.868831,186.795026 L504.359346,184.875777 Z M511.378316,188.714276 L511.858128,187.836904 L515.367613,189.756154 L514.8878,190.633525 L511.378316,188.714276 Z M518.397285,192.552774 L518.877097,191.675403 L522.386582,193.594653 L521.906769,194.472024 L518.397285,192.552774 Z M525.416254,196.391273 L525.896066,195.513902 L529.405551,197.433151 L528.925738,198.310522 L525.416254,196.391273 Z M532.435223,200.229772 L532.915035,199.352401 L536.42452,201.27165 L535.944708,202.149021 L532.435223,200.229772 Z M539.454192,204.068271 L539.934004,203.190899 L543.443489,205.110149 L542.963677,205.98752 L539.454192,204.068271 Z M546.473161,207.906769 L546.952974,207.029398 L550.462458,208.948648 L549.982646,209.826019 L546.473161,207.906769 Z M553.49213,211.745268 L553.971943,210.867897 L557.481427,212.787146 L557.001615,213.664517 L553.49213,211.745268 Z M560.511099,215.583767 L560.990912,214.706396 L564.500396,216.625645 L564.020584,217.503016 L560.511099,215.583767 Z M567.530069,219.422265 L568.009881,218.544894 L571.519365,220.464144 L571.039553,221.341515 L567.530069,219.422265 Z M574.549038,223.260764 L575.02885,222.383393 L578.538335,224.302642 L578.058522,225.180014 L574.549038,223.260764 Z M581.568007,227.099263 L582.047819,226.221892 L585.557304,228.141141 L585.077491,229.018512 L581.568007,227.099263 Z M588.586976,230.937762 L589.066788,230.060391 L592.576273,231.97964 L592.09646,232.857011 L588.586976,230.937762 Z M595.605945,234.77626 L596.085757,233.898889 L599.595242,235.818139 L599.11543,236.69551 L595.605945,234.77626 Z M602.624914,238.614759 L603.104726,237.737388 L606.614211,239.656637 L606.134399,240.534009 L602.624914,238.614759 Z M609.643883,242.453258 L610.123696,241.575887 L613.63318,243.495136 L613.153368,244.372507 L609.643883,242.453258 Z M616.662852,246.291757 L617.142665,245.414385 L620.652149,247.333635 L620.172337,248.211006 L616.662852,246.291757 Z M623.681821,250.130255 L624.161634,249.252884 L627.671118,251.172134 L627.191306,252.049505 L623.681821,250.130255 Z M630.700791,253.968754 L631.180603,253.091383 L634.690087,255.010632 L634.210275,255.888003 L630.700791,253.968754 Z M637.71976,257.807253 L638.199572,256.929882 L641.709057,258.849131 L641.229244,259.726502 L637.71976,257.807253 Z" fill="#FFFFFF" fill-rule="nonzero" opacity="0.100000001"></path>
                    <path id="Line-2" d="M710,230.901442 L710,230.784513 L711,230.784513 L711,230.901442 L715,230.901442 L710.5,239.901442 L706,230.901442 L710,230.901442 Z M710,158.784513 L711,158.784513 L711,162.784513 L710,162.784513 L710,158.784513 Z M710,166.784513 L711,166.784513 L711,170.784513 L710,170.784513 L710,166.784513 Z M710,174.784513 L711,174.784513 L711,178.784513 L710,178.784513 L710,174.784513 Z M710,182.784513 L711,182.784513 L711,186.784513 L710,186.784513 L710,182.784513 Z M710,190.784513 L711,190.784513 L711,194.784513 L710,194.784513 L710,190.784513 Z M710,198.784513 L711,198.784513 L711,202.784513 L710,202.784513 L710,198.784513 Z M710,206.784513 L711,206.784513 L711,210.784513 L710,210.784513 L710,206.784513 Z M710,214.784513 L711,214.784513 L711,218.784513 L710,218.784513 L710,214.784513 Z M710,222.784513 L711,222.784513 L711,226.784513 L710,226.784513 L710,222.784513 Z" fill="#FFFFFF" fill-rule="nonzero" opacity="0.100000001"></path>
                    <path id="Line-2" d="M245.991881,124.56234 L246.555979,124.391857 L246.845278,125.349096 L246.281179,125.519579 L247.438375,129.348535 L237.521381,127.644649 L244.834685,120.733385 L245.991881,124.56234 Z M307.819264,105.876731 L308.108563,106.83397 L304.279608,107.991165 L303.990309,107.033927 L307.819264,105.876731 Z M300.161353,108.191122 L300.450652,109.148361 L296.621697,110.305556 L296.332398,109.348317 L300.161353,108.191122 Z M292.503443,110.505513 L292.792742,111.462752 L288.963786,112.619947 L288.674488,111.662708 L292.503443,110.505513 Z M284.845532,112.819903 L285.134831,113.777142 L281.305876,114.934338 L281.016577,113.977099 L284.845532,112.819903 Z M277.187622,115.134294 L277.47692,116.091533 L273.647965,117.248728 L273.358666,116.29149 L277.187622,115.134294 Z M269.529711,117.448685 L269.81901,118.405924 L265.990054,119.563119 L265.700756,118.60588 L269.529711,117.448685 Z M261.8718,119.763076 L262.161099,120.720315 L258.332144,121.87751 L258.042845,120.920271 L261.8718,119.763076 Z M254.21389,122.077467 L254.503188,123.034705 L250.674233,124.191901 L250.384934,123.234662 L254.21389,122.077467 Z" fill="#FFFFFF" fill-rule="nonzero" opacity="0.100000001"></path>
                    <path id="Line-2" d="M498.991881,124.56234 L499.555979,124.391857 L499.845278,125.349096 L499.281179,125.519579 L500.438375,129.348535 L490.521381,127.644649 L497.834685,120.733385 L498.991881,124.56234 Z M560.819264,105.876731 L561.108563,106.83397 L557.279608,107.991165 L556.990309,107.033927 L560.819264,105.876731 Z M553.161353,108.191122 L553.450652,109.148361 L549.621697,110.305556 L549.332398,109.348317 L553.161353,108.191122 Z M545.503443,110.505513 L545.792742,111.462752 L541.963786,112.619947 L541.674488,111.662708 L545.503443,110.505513 Z M537.845532,112.819903 L538.134831,113.777142 L534.305876,114.934338 L534.016577,113.977099 L537.845532,112.819903 Z M530.187622,115.134294 L530.47692,116.091533 L526.647965,117.248728 L526.358666,116.29149 L530.187622,115.134294 Z M522.529711,117.448685 L522.81901,118.405924 L518.990054,119.563119 L518.700756,118.60588 L522.529711,117.448685 Z M514.8718,119.763076 L515.161099,120.720315 L511.332144,121.87751 L511.042845,120.920271 L514.8718,119.763076 Z M507.21389,122.077467 L507.503188,123.034705 L503.674233,124.191901 L503.384934,123.234662 L507.21389,122.077467 Z" fill="#FFFFFF" fill-rule="nonzero" opacity="0.100000001"></path>
                    <path id="Line-2" d="M88,230.901442 L88,230.784513 L89,230.784513 L89,230.901442 L93,230.901442 L88.5,239.901442 L84,230.901442 L88,230.901442 Z M88,158.784513 L89,158.784513 L89,162.784513 L88,162.784513 L88,158.784513 Z M88,166.784513 L89,166.784513 L89,170.784513 L88,170.784513 L88,166.784513 Z M88,174.784513 L89,174.784513 L89,178.784513 L88,178.784513 L88,174.784513 Z M88,182.784513 L89,182.784513 L89,186.784513 L88,186.784513 L88,182.784513 Z M88,190.784513 L89,190.784513 L89,194.784513 L88,194.784513 L88,190.784513 Z M88,198.784513 L89,198.784513 L89,202.784513 L88,202.784513 L88,198.784513 Z M88,206.784513 L89,206.784513 L89,210.784513 L88,210.784513 L88,206.784513 Z M88,214.784513 L89,214.784513 L89,218.784513 L88,218.784513 L88,214.784513 Z M88,222.784513 L89,222.784513 L89,226.784513 L88,226.784513 L88,222.784513 Z" fill="#FFFFFF" fill-rule="nonzero" opacity="0.100000001"></path>
                </g>
            </g>
        </g>
    </g>
</svg>