<svg xmlns="http://www.w3.org/2000/svg" xmlns:xlink="http://www.w3.org/1999/xlink" width="889" height="665" viewBox="0 0 889 665"><defs><path id="mtdna" d="M1253.931 227.495l-.35 122.38-186.761-108.172.344-122.383z"/><path id="mtdnb" d="M1076.494 113.1l-.344 122.383 186.764 108.172.344-122.382z"/><path id="mtdnc" d="M1120.72 240.27v2.256l147.484 85.416v-2.258z"/><path id="mtdnd" d="M1120.72 246.04v2.263l147.484 85.578v-2.262z"/><path id="mtdnaB" d="M1255.573 420.989a.364.364 0 0 1-.18-.05l-165.484-95.471a.358.358 0 0 1-.179-.313V217.791a.362.362 0 1 1 .723 0v107.156l165.299 95.368a.36.36 0 0 1-.18.674"/><path id="mtdnaC" d="M1262.37 416.323a.364.364 0 0 1-.18-.05l-165.48-95.471a.358.358 0 0 1-.18-.313v-98.768a.362.362 0 1 1 .723 0v98.56l165.296 95.368a.36.36 0 0 1-.18.674"/><path id="mtdnaD" d="M1269.24 413.037a.364.364 0 0 1-.18-.05l-165.48-95.468a.363.363 0 0 1-.18-.315V225.68a.362.362 0 1 1 .723 0v91.314l165.296 95.368a.36.36 0 0 1-.18.674"/><path id="mtdnaE" d="M1098.398 222.587c0 .963-.674 1.35-1.508.87-.836-.48-1.51-1.651-1.51-2.61 0-.964.674-1.351 1.51-.871.834.48 1.508 1.648 1.508 2.61"/><path id="mtdnaF" d="M1091.588 218.667c0 .963-.674 1.35-1.508.87-.836-.48-1.51-1.65-1.51-2.61 0-.964.674-1.351 1.51-.871.834.48 1.508 1.648 1.508 2.61"/><path id="mtdnaG" d="M1105.265 226.557c0 .963-.674 1.35-1.508.87-.833-.48-1.507-1.65-1.507-2.61 0-.964.674-1.351 1.507-.871.834.48 1.508 1.648 1.508 2.61"/><path id="mtdne" d="M1269.093 311.021l-37.623-21.705V233.62l37.623 21.705z"/><path id="mtdnaJ" d="M1068.637 741.673a.364.364 0 0 1-.18-.049L822.65 599.527a.361.361 0 0 1-.179-.313V486.481a.362.362 0 0 1 .723 0v112.522l245.082 141.682v-62.91a.362.362 0 0 1 .724 0v63.537c0 .13-.067.249-.183.312a.364.364 0 0 1-.179.05"/><path id="mtdnaK" d="M1077.107 758.302a.364.364 0 0 1-.18-.05L831.12 616.156a.362.362 0 0 1-.179-.312V491.17a.362.362 0 0 1 .723 0v124.46l245.082 141.682v-62.91a.362.362 0 0 1 .724 0v63.537c0 .13-.067.249-.183.313a.364.364 0 0 1-.179.049"/><path id="mtdnaL" d="M1086.574 776.17a.364.364 0 0 1-.18-.05L840.59 634.02a.361.361 0 0 1-.179-.312V506.56a.362.362 0 0 1 .723 0v126.936l245.08 141.684v-62.91a.362.362 0 0 1 .723 0v63.537c0 .13-.067.249-.182.312a.364.364 0 0 1-.18.05"/><path id="mtdnaM" d="M1144.897 549.562a.364.364 0 0 1-.18-.05l-112.077-64.658a.365.365 0 0 1-.133-.495.367.367 0 0 1 .495-.133l112.074 64.662a.36.36 0 0 1-.18.674"/><path id="mtdnaN" d="M1139.907 554.985a.364.364 0 0 1-.18-.05l-112.077-64.661a.365.365 0 0 1-.133-.495.367.367 0 0 1 .495-.133l112.074 64.665a.36.36 0 0 1-.18.674"/><path id="mtdnaO" d="M1134.227 559.842a.364.364 0 0 1-.18-.05l-112.077-64.658a.365.365 0 0 1-.133-.495.366.366 0 0 1 .495-.133l112.074 64.662a.36.36 0 0 1-.18.674"/><path id="mtdnf" d="M1609.55 442.665c-.015 5.937-4.551 11.936-12.549 16.55l-173.654 100.191c-15.39 8.88-38.723 9.857-52.024 2.183l-181.236-104.562c-5.512-3.178-8.622-7.54-8.753-12.282-.167-6.052 4.404-12.216 12.538-16.909l173.66-100.19c8.426-4.86 19.239-7.356 29.479-7.356 8.46 0 16.527 1.703 22.542 5.173l181.239 104.562c5.486 3.166 8.51 7.324 8.744 12.028.009.183.014.367.014.55v.062"/><path id="mtdnaQ" d="M1600.792 430.025l-181.239-104.562c-6.015-3.47-14.082-5.173-22.542-5.173-10.24 0-21.053 2.495-29.479 7.356l-173.66 100.19c-8.134 4.693-12.705 10.857-12.538 16.909.13 4.741 3.241 9.104 8.753 12.282l181.236 104.562c13.3 7.674 36.633 6.696 52.024-2.183L1597 459.216c8.273-4.774 12.841-11.028 12.535-17.163-.235-4.704-3.258-8.862-8.744-12.028"/><path id="mtdng" d="M1367.472 318.053l-173.53 100.288c-8.13 4.7-12.695 10.871-12.528 16.929.13 4.746 3.236 9.111 8.747 12.292l181.102 104.67c13.294 7.679 36.61 6.706 51.99-2.188l173.529-100.291c8.266-4.773 12.829-11.036 12.522-17.178-.231-4.709-3.255-8.873-8.737-12.04l-181.108-104.667c-6.011-3.473-14.072-5.178-22.524-5.178-10.235 0-21.04 2.495-29.463 7.363"/><path id="mtdnh" d="M1367.605 313.96l-173.53 100.218c-8.13 4.697-12.695 10.86-12.53 16.916.13 4.74 3.238 9.105 8.746 12.286l181.108 104.59c13.288 7.673 36.604 6.699 51.983-2.183l173.53-100.217c7.93-4.582 12.453-10.53 12.537-16.428v-.333c0-.138-.006-.274-.012-.413-.234-4.7-3.256-8.862-8.738-12.029l-181.108-104.59c-6.014-3.474-14.072-5.177-22.526-5.177-10.232 0-21.037 2.496-29.46 7.36"/><path id="mtdnaW" d="M1560.667 439.275c5.316 3.074 13.933 3.074 19.249 0 5.316-3.07 5.316-8.049 0-11.12-5.316-3.073-13.933-3.073-19.249 0-5.316 3.071-5.316 8.05 0 11.12"/><path id="mtdni" d="M1140.442 428.525c5.487 3.17 8.51 7.331 8.743 12.04.307 6.142-4.26 12.402-12.53 17.18l-173.592 100.29c-15.381 8.89-38.705 9.868-52.001 2.184L729.894 455.555c-5.513-3.181-8.62-7.549-8.75-12.295-.167-6.058 4.403-12.225 12.533-16.926L907.27 326.046c8.422-4.868 19.234-7.366 29.47-7.366 8.457 0 16.52 1.705 22.534 5.178"/><path id="mtdnaY" d="M1140.442 428.525L959.274 323.858c-6.013-3.473-14.077-5.178-22.534-5.178-10.236 0-21.048 2.498-29.47 7.366L733.677 426.334c-8.13 4.7-12.7 10.868-12.533 16.926.13 4.746 3.237 9.114 8.75 12.295l181.168 104.664c13.296 7.684 36.62 6.706 52.001-2.185l173.593-100.288c8.269-4.779 12.836-11.04 12.53-17.18-.235-4.71-3.257-8.872-8.744-12.04"/><path id="mtdnj" d="M907.535 318.745l-173.97 100.182c-8.149 4.692-12.729 10.853-12.56 16.907.13 4.74 3.243 9.1 8.768 12.28l181.563 104.554c13.322 7.67 36.696 6.696 52.114-2.186l173.971-100.179c8.285-4.773 12.865-11.026 12.554-17.164-.234-4.7-3.26-8.858-8.762-12.024l-181.56-104.553c-6.03-3.472-14.108-5.172-22.583-5.172-10.259 0-21.094 2.495-29.535 7.355"/><path id="mtdnk" d="M907.599 313.487l-173.9 100.25c-8.147 4.702-12.723 10.867-12.555 16.922.13 4.745 3.243 9.11 8.765 12.29l181.488 104.627c13.32 7.676 36.685 6.701 52.094-2.184l173.9-100.256c8.283-4.77 12.858-11.031 12.548-17.17-.232-4.705-3.26-8.868-8.756-12.036L959.695 311.303c-6.024-3.472-14.105-5.173-22.574-5.173-10.254 0-21.085 2.491-29.522 7.357"/><path id="mtdnl" d="M1013.166 474.216c-49.931 28.977-138.246 21.95-192.948 3.375-58.408-19.831-67-35.002-67.018-53.152-.029-26.92 39.909-42.57 78.932-55.518 54.734-18.161 130.938-28.899 180.93.178"/><path id="mtdnbf" d="M1013.166 474.216c-49.931 28.977-138.246 21.95-192.948 3.375-58.408-19.831-67-35.002-67.018-53.152-.029-26.92 39.909-42.57 78.932-55.518 54.734-18.161 130.938-28.899 180.93.178 49.991 29.077 50.038 76.14.104 105.117"/><path id="mtdnm" d="M850.195 365.363c-46.662 27.141-46.66 71.142.003 98.284 46.66 27.138 122.315 27.14 168.975 0 46.662-27.139 46.662-71.143 0-98.284-23.333-13.568-53.913-20.353-84.492-20.353-30.577 0-61.156 6.785-84.486 20.353"/><path id="mtdnn" d="M850.195 360.066c-46.662 27.16-46.66 71.186.003 98.345 46.66 27.16 122.315 27.16 168.975.003 46.662-27.156 46.662-71.189 0-98.345-23.336-13.582-53.91-20.372-84.492-20.369-30.577 0-61.159 6.79-84.486 20.366"/><path id="mtdno" d="M819.68 328.51v72.395c-.032 17.165 11.182 34.336 33.768 47.435 45.118 26.163 118.259 26.165 163.377.003 22.405-12.997 33.605-29.996 33.75-47.028h.015V328.51z"/><path id="mtdnp" d="M853.494 280.323c-45.086 25.937-45.086 67.992.003 93.929 45.09 25.94 118.19 25.94 163.279 0 45.086-25.934 45.083-67.99-.003-93.93-22.545-12.968-52.093-19.452-81.64-19.452-29.549 0-59.097 6.484-81.639 19.453"/><path id="mtdnbp" d="M935.006 382c-27.375 0-54.749-5.977-75.59-17.93C839.158 352.445 828 336.974 828 320.5c0-16.473 11.158-31.947 31.416-43.569 41.679-23.907 109.49-23.91 151.168 0 20.258 11.625 31.416 27.096 31.416 43.572 0 16.474-11.158 31.945-31.413 43.567-20.835 11.953-48.213 17.93-75.581 17.93m-.004-122.29c-27.242 0-54.485 5.947-75.222 17.846-20.025 11.487-31.056 26.736-31.056 42.945 0 16.205 11.031 31.455 31.056 42.944 41.48 23.795 108.975 23.792 150.453 0 20.025-11.487 31.053-26.736 31.053-42.942 0-16.208-11.031-31.46-31.056-42.947-20.74-11.899-47.986-17.847-75.228-17.847"/><path id="mtdnq" d="M835.84 311.63v6.097c-.026 14.454 9.57 28.913 28.896 39.942 38.602 22.027 101.19 22.03 139.795 0 19.17-10.943 28.755-25.26 28.876-39.599h.015v-6.44z"/><path id="mtdnr" d="M864.732 270.268c-38.605 22.275-38.602 58.394.003 80.672 38.602 22.28 101.19 22.28 139.795.003 38.601-22.278 38.601-58.397-.003-80.675-19.307-11.139-44.602-16.708-69.9-16.708-25.296 0-50.597 5.57-69.895 16.708"/><path id="mtdns" d="M964.354 328.266c-15.962 9.182-41.836 9.182-57.795 0-15.959-9.182-15.959-24.067 0-33.252 15.96-9.18 41.833-9.18 57.792.003"/><path id="mtdnbv" d="M964.354 328.266c-15.962 9.182-41.836 9.182-57.795 0-15.959-9.182-15.959-24.067 0-33.252 15.96-9.18 41.833-9.18 57.792.003 15.96 9.182 15.962 24.067.003 33.249"/><path id="mtdnt" d="M957.782 323.312c-11.92 6.859-31.249 6.859-43.172 0-11.92-6.86-11.92-17.979 0-24.838 11.92-6.859 31.249-6.859 43.172 0"/><path id="mtdnby" d="M957.782 323.312c-11.92 6.859-31.249 6.859-43.172 0-11.92-6.86-11.92-17.979 0-24.838 11.92-6.859 31.249-6.859 43.172 0 11.923 6.86 11.923 17.979 0 24.838"/><path id="mtdnbA" d="M995.846 453.594l.427-.244c1.578-.908 2.856-3.343 2.856-5.442v-55.856c0-2.095-1.278-3.058-2.856-2.15l-.427.244c-1.578.909-2.856 3.344-2.856 5.44v55.855c0 2.096 1.278 3.062 2.856 2.153"/><path id="mtdnu" d="M996.223 428.915l-.415.256c-1.524.941-2.758 3.465-2.758 5.634v17.524c0 2.172 1.234 3.173 2.758 2.231l.415-.256c1.52-.938 2.755-3.465 2.755-5.637v-17.521c0-1.618-.682-2.586-1.66-2.586-.337 0-.708.113-1.095.355"/><path id="mtdnbD" d="M1020.036 382.895c0 .636.45.896 1.003.575.553-.318 1.002-1.093 1.002-1.732s-.449-.896-1.002-.578c-.554.32-1.003 1.096-1.003 1.735"/><path id="mtdnbE" d="M1012.346 387.323c0 .639.45.896 1.003.578.553-.321 1.002-1.096 1.002-1.732 0-.64-.449-.896-1.002-.578-.554.318-1.003 1.093-1.003 1.732"/><path id="mtdnbF" d="M1020.036 391.263c0 .639.45.896 1.003.578.553-.321 1.002-1.096 1.002-1.732 0-.64-.449-.896-1.002-.578-.554.318-1.003 1.095-1.003 1.732"/><path id="mtdnbG" d="M1012.346 395.683c0 .639.45.896 1.003.578.553-.32 1.002-1.096 1.002-1.732 0-.639-.449-.896-1.002-.58-.554.32-1.003 1.095-1.003 1.734"/><path id="mtdnbH" d="M1102.524 435.242c5.326 3.068 13.961 3.068 19.287 0 5.326-3.067 5.326-8.043 0-11.111-5.326-3.068-13.96-3.068-19.287 0-5.325 3.068-5.325 8.044 0 11.111"/><path id="mtdnv" d="M940.775 538.42l5.32 3.113 5.317-3.112-5.317-3.116zm8.069-4.73l5.32 3.12 5.32-3.12-5.32-3.118zm-16.464-.185l5.32 3.118 5.32-3.118-5.32-3.12zm8.072-4.736l5.32 3.12 5.323-3.12-5.323-3.118zm17.262-.278l5.317 3.12 5.32-3.12-5.32-3.121zm-8.395-4.921l5.32 3.117 5.32-3.117-5.32-3.12zm17.015-.135l5.383 3.156 35.467-20.802-5.38-3.155zm-8.392-4.92l5.38 3.155 35.47-20.804-5.383-3.156z"/><path id="mtdnw" d="M1014.66 262.179a1.602 1.602 0 1 0 3.204 0 1.6 1.6 0 0 0-1.602-1.599 1.6 1.6 0 0 0-1.602 1.599"/><path id="mtdnbN" d="M872.308 291.81c0 .84-.694 1.52-1.55 1.52-.857 0-1.548-.68-1.548-1.52 0-.837.691-1.52 1.548-1.52.856 0 1.55.683 1.55 1.52"/><path id="mtdnbO" d="M964.828 345.88c0 .84-.694 1.52-1.55 1.52-.857 0-1.548-.68-1.548-1.52s.691-1.52 1.548-1.52c.856 0 1.55.68 1.55 1.52"/><path id="mtdnx" d="M868.505 392.541v47.171c0 .428.276.928.609 1.114l.093.052c.333.18.609-.014.609-.442v-47.172c0-.427-.276-.927-.61-1.11l-.093-.052a.488.488 0 0 0-.24-.072c-.216 0-.369.192-.369.511"/><path id="mtdny" d="M872.846 394.965v47.272c0 .428.273.929.609 1.116l.09.049c.336.19.609-.012.609-.44V395.69c0-.432-.273-.93-.609-1.12l-.09-.048a.488.488 0 0 0-.24-.072c-.219 0-.369.193-.369.515"/><path id="mtdnz" d="M877.184 396.672v46.997c0 .43.273.924.612 1.11l.09.052c.336.183.61-.012.61-.44v-46.998c0-.43-.273-.924-.61-1.11l-.09-.051a.509.509 0 0 0-.243-.072c-.216 0-.369.192-.369.512"/><path id="mtdnA" d="M881.526 399.102v47.272c0 .431.27.93.609 1.116l.093.049c.333.19.606-.009.606-.44v-47.272c0-.429-.273-.93-.606-1.119l-.093-.049a.524.524 0 0 0-.243-.069c-.216 0-.366.193-.366.512"/><path id="mtdnB" d="M1289.34 418.03v23.407c.064 2.274 1.56 4.366 4.208 5.89l87.12 50.116c6.392 3.675 17.607 3.21 25.006-1.05l83.474-48.018c3.396-1.953 5.478-4.424 5.925-6.938h.107V418.03z"/><path id="mtdnC" d="M1378.846 363.736l-83.474 48.16c-3.913 2.257-6.108 5.22-6.03 8.129.064 2.28 1.56 4.376 4.208 5.907l87.12 50.263c6.392 3.684 17.607 3.215 25.006-1.052l83.474-48.162c3.976-2.296 6.171-5.301 6.026-8.251-.113-2.261-1.566-4.258-4.205-5.782l-87.12-50.264c-2.891-1.667-6.769-2.484-10.835-2.484-4.924 0-10.122 1.2-14.17 3.536"/><path id="mtdnD" d="M1289.34 385.1v23.41c.064 2.271 1.56 4.36 4.208 5.883l87.12 50.117c6.392 3.678 17.607 3.21 25.006-1.046l83.474-48.019c3.396-1.953 5.478-4.427 5.925-6.935h.107V385.1z"/><path id="mtdnE" d="M1378.846 330.818l-83.474 48.233c-3.913 2.26-6.111 5.227-6.03 8.141.064 2.281 1.56 4.38 4.208 5.912l87.12 50.337c6.392 3.692 17.607 3.222 25.006-1.053l83.474-48.233c3.976-2.296 6.172-5.306 6.027-8.26-.114-2.264-1.567-4.267-4.206-5.79l-87.12-50.338c-2.891-1.671-6.769-2.487-10.835-2.487-4.924 0-10.121 1.199-14.17 3.538"/><path id="mtdnF" d="M1289.34 353.17v23.435c.064 2.274 1.56 4.368 4.208 5.893l87.12 50.177c6.392 3.68 17.607 3.214 25.006-1.048l83.474-48.079c3.396-1.953 5.478-4.43 5.925-6.943h.107V353.17z"/><path id="mtdnG" d="M1378.846 298.066l-83.474 48.199c-3.913 2.257-6.111 5.224-6.03 8.133.064 2.282 1.56 4.382 4.208 5.91l87.12 50.303c6.392 3.69 17.607 3.22 25.006-1.053l83.474-48.196c3.976-2.297 6.172-5.305 6.027-8.258-.114-2.262-1.567-4.263-4.206-5.786l-87.12-50.302c-2.891-1.671-6.769-2.486-10.835-2.486-4.924 0-10.121 1.198-14.17 3.536"/><path id="mtdnH" d="M1289.34 320.42v23.387c.064 2.272 1.56 4.36 4.208 5.884l87.12 50.065c6.392 3.673 17.607 3.208 25.006-1.045l83.474-47.975c3.396-1.952 5.478-4.423 5.925-6.929h.107V320.42z"/><path id="mtdnI" d="M1378.846 265.139l-83.474 48.196c-3.913 2.26-6.111 5.227-6.03 8.136.064 2.282 1.56 4.382 4.208 5.908l87.12 50.302c6.392 3.692 17.607 3.225 25.006-1.05l83.474-48.196c3.976-2.297 6.172-5.308 6.027-8.258-.116-2.262-1.567-4.266-4.206-5.786l-87.12-50.302c-2.891-1.671-6.769-2.489-10.835-2.489-4.924 0-10.121 1.198-14.17 3.539"/><path id="mtdnJ" d="M1385.599 290.755l-50.829 29.063c-2.379 1.364-3.718 3.15-3.669 4.909.038 1.375.95 2.64 2.562 3.561l53.046 30.336c3.898 2.224 10.721 1.939 15.227-.636l50.832-29.067c2.416-1.38 3.756-3.196 3.668-4.977-.07-1.364-.955-2.572-2.562-3.487l-53.048-30.335c-1.76-1.007-4.119-1.502-6.597-1.502-2.998 0-6.164.725-8.63 2.135"/><path id="mtdnK" d="M1385.599 287.222l-50.829 29.024c-2.379 1.359-3.718 3.146-3.669 4.898.038 1.374.95 2.638 2.562 3.56l53.046 30.288c3.898 2.224 10.721 1.942 15.227-.63l50.832-29.026c2.416-1.382 3.756-3.192 3.668-4.973-.07-1.362-.955-2.566-2.562-3.485l-53.048-30.288c-1.76-1.006-4.119-1.5-6.597-1.5-2.998 0-6.164.724-8.63 2.132"/><path id="mtdncr" d="M1395.536 300.12c-1.951 1.173-5.118 1.173-7.072 0-1.952-1.171-1.952-3.072 0-4.24 1.954-1.173 5.12-1.173 7.072 0 1.952 1.168 1.952 3.069 0 4.24"/><path id="mtdnL" d="M1438.03 367.714v4.446l33.566-19.927v-4.443z"/><path id="mtdnM" d="M1474.73 346.065v4.32l8.663-4.922v-4.323z"/><path id="mtdnN" d="M1438.03 401.16v4.43l33.566-19.866v-4.434z"/><path id="mtdnO" d="M1474.73 379.4v4.39l8.663-5.003V374.4z"/><path id="mtdnP" d="M1438.03 433.58v4.4l33.566-19.73v-4.4z"/><path id="mtdnQ" d="M1474.73 412.06v4.39l8.663-5.002v-4.388z"/><path id="mtdnR" d="M1438.03 464.237v4.43l33.566-19.866v-4.431z"/><path id="mtdnS" d="M1474.73 443.472v4.388l8.663-5.003v-4.387z"/><path id="mtdnT" d="M1309.11 415.456l21.894 11.94v-3.133l-21.894-11.943z"/><path id="mtdnU" d="M1309.11 381.732l21.894 11.854v-3.113l-21.894-11.853z"/><path id="mtdnV" d="M1393.448 348.336l2.646 1.549-2.646 1.548-2.65-1.548zm4.03-2.356l2.654 1.553-2.654 1.55-2.654-1.55zm-8.214-.098l2.657 1.556-2.657 1.554-2.654-1.554zm4.02-2.354l2.65 1.553-2.65 1.55-2.646-1.55zm8.62-.14l2.654 1.554-2.654 1.553-2.655-1.553zm-4.19-2.45l2.655 1.548-2.654 1.548-2.654-1.548zm23.529-8.873l2.686 1.57-17.696 10.358-2.684-1.57zm-4.183-2.455l2.683 1.571-17.696 10.36-2.684-1.57z"/><path id="mtdnW" d="M1309.68 440.081c0 1.135.834 2.515 1.866 3.083 1.035.566 1.869.109 1.869-1.028 0-1.135-.834-2.515-1.869-3.08-.3-.166-.582-.246-.834-.246-.612 0-1.032.466-1.032 1.271"/><path id="mtdnX" d="M1318.18 444.546c0 1.103.836 2.445 1.871 2.995 1.038.552 1.874.105 1.874-.998 0-1.102-.836-2.444-1.874-2.997-.3-.161-.584-.236-.833-.236-.617 0-1.038.453-1.038 1.236"/><path id="mtdnY" d="M1326.69 449.712c0 .993.834 2.2 1.866 2.698 1.035.497 1.869.095 1.869-.9 0-.993-.834-2.2-1.869-2.697a1.932 1.932 0 0 0-.831-.213c-.615 0-1.035.407-1.035 1.113"/><path id="mtdncU" d="M1279.342 579.832a.362.362 0 0 1-.362-.362v-99.793c0-.13.07-.248.183-.315l48.888-27.992a.358.358 0 0 1 .493.133.361.361 0 0 1-.13.494l-48.71 27.888v99.585c0 .2-.162.362-.362.362"/><path id="mtdncV" d="M1271.032 575.013a.362.362 0 0 1-.362-.361v-99.796c0-.13.07-.249.183-.315l48.888-27.99a.356.356 0 0 1 .493.133.361.361 0 0 1-.13.494l-48.71 27.886v99.588c0 .2-.162.361-.362.361"/><path id="mtdncW" d="M1262.822 569.272a.362.362 0 0 1-.362-.362v-99.793c0-.13.07-.248.183-.315l48.888-27.992a.359.359 0 0 1 .493.133.361.361 0 0 1-.13.494l-48.71 27.888v99.585c0 .2-.162.362-.362.362"/><path id="mtdnZ" d="M1369.203 641.44c5.493 3.167 8.521 7.323 8.756 12.021.31 6.132-4.265 12.386-12.549 17.154l-173.9 100.134c-15.408 8.874-38.776 9.851-52.096 2.182L957.93 668.43c-5.522-3.18-8.634-7.54-8.765-12.276-.168-6.049 4.41-12.21 12.555-16.902l173.9-100.132c8.437-4.86 19.265-7.351 29.522-7.351 8.47 0 16.547 1.7 22.571 5.167"/><path id="mtdncY" d="M1369.203 641.44l-181.491-104.503c-6.024-3.468-14.102-5.167-22.571-5.167-10.257 0-21.085 2.49-29.522 7.351l-173.9 100.132c-8.145 4.693-12.723 10.853-12.555 16.902.13 4.736 3.243 9.096 8.765 12.275l181.485 104.5c13.32 7.67 36.688 6.693 52.097-2.181l173.9-100.134c8.283-4.768 12.858-11.022 12.548-17.154-.235-4.698-3.263-8.854-8.756-12.02"/><path id="mtdnaa" d="M1135.479 532.03L961.582 632.32c-8.148 4.703-12.723 10.873-12.558 16.93.134 4.745 3.245 9.112 8.765 12.293l181.488 104.667c13.32 7.679 36.688 6.706 52.096-2.188l173.897-100.288c8.284-4.776 12.859-11.036 12.555-17.18-.235-4.707-3.263-8.868-8.762-12.04l-181.491-104.668c-6.021-3.473-14.1-5.175-22.568-5.175-10.257 0-21.088 2.495-29.525 7.36"/><path id="mtdnab" d="M1135.619 525.953l-173.9 100.288c-8.145 4.698-12.723 10.868-12.555 16.929.13 4.744 3.243 9.111 8.765 12.289l181.485 104.67c13.32 7.679 36.688 6.703 52.097-2.185l173.902-100.294c8.28-4.776 12.856-11.036 12.549-17.18-.238-4.706-3.263-8.871-8.76-12.038l-181.49-104.667c-6.024-3.473-14.102-5.175-22.568-5.175-10.26 0-21.088 2.495-29.525 7.363"/><path id="mtdnac" d="M1065.06 636.6v23.387c.06 2.27 1.554 4.357 4.203 5.878l87.078 50.069c6.392 3.675 17.603 3.207 24.998-1.046l83.437-47.975c3.394-1.952 5.476-4.423 5.922-6.926h.107V636.6z"/><path id="mtdnad" d="M1154.523 580.319l-83.437 48.199c-3.91 2.256-6.105 5.224-6.024 8.133.061 2.282 1.554 4.382 4.204 5.91l87.077 50.3c6.393 3.692 17.603 3.223 24.998-1.05l83.437-48.2c3.974-2.293 6.169-5.301 6.02-8.257-.11-2.26-1.565-4.263-4.2-5.783l-87.078-50.3c-2.893-1.673-6.769-2.491-10.833-2.491-4.922 0-10.117 1.2-14.164 3.539"/><path id="mtdnae" d="M1072.17 628.6v3.829c.064 2.11 1.467 4.047 3.958 5.464l81.904 46.493c6.012 3.41 16.56 2.978 23.514-.972l78.483-44.552c3.19-1.809 5.149-4.104 5.571-6.433h.099V628.6z"/><path id="mtdnaf" d="M1156.322 575.077l-78.483 45.307c-3.674 2.123-5.74 4.912-5.667 7.651.06 2.14 1.467 4.114 3.957 5.551l81.905 47.29c6.012 3.468 16.56 3.028 23.514-.99l78.482-45.31c3.738-2.158 5.804-4.987 5.665-7.762-.104-2.126-1.473-4.009-3.952-5.44l-81.91-47.287c-2.717-1.568-6.362-2.337-10.187-2.337-4.628 0-9.514 1.125-13.324 3.327"/><path id="mtdnag" d="M1065.06 591.37v23.438c.06 2.274 1.554 4.365 4.203 5.893l87.078 50.176c6.392 3.68 17.603 3.212 24.998-1.05l83.437-48.079c3.394-1.953 5.476-4.426 5.922-6.94h.107V591.37z"/><path id="mtdnah" d="M1154.523 535.089l-83.437 48.196c-3.91 2.262-6.105 5.224-6.024 8.136.061 2.28 1.554 4.38 4.204 5.908l87.077 50.3c6.393 3.691 17.603 3.225 24.998-1.048l83.437-48.2c3.974-2.296 6.169-5.304 6.02-8.257-.11-2.262-1.565-4.26-4.2-5.783l-87.078-50.302c-2.893-1.671-6.769-2.489-10.833-2.489-4.922 0-10.117 1.198-14.164 3.539"/><path id="mtdnai" d="M1072.17 583.38v3.842c.064 2.113 1.467 4.055 3.958 5.476l81.904 46.623c6.012 3.42 16.56 2.983 23.514-.973l78.483-44.678c3.19-1.814 5.149-4.112 5.571-6.448h.099v-3.842z"/><path id="mtdnaj" d="M1156.322 530.852l-78.483 45.383c-3.674 2.123-5.74 4.917-5.667 7.66.06 2.147 1.467 4.123 3.957 5.563l81.905 47.362c6.012 3.474 16.56 3.034 23.514-.988l78.482-45.383c3.738-2.161 5.804-4.995 5.665-7.773-.104-2.133-1.473-4.016-3.952-5.45l-81.91-47.362c-2.717-1.573-6.362-2.344-10.187-2.344-4.628 0-9.514 1.127-13.324 3.332"/><path id="mtdnak" d="M1065.06 548.25v23.36c.06 2.263 1.554 4.348 4.203 5.87l87.078 50.009c6.392 3.67 17.603 3.204 24.998-1.044l83.437-47.918c3.394-1.95 5.476-4.418 5.922-6.918h.107V548.25z"/><path id="mtdnal" d="M1154.523 492.966l-83.437 48.162c-3.91 2.255-6.105 5.22-6.024 8.127.061 2.28 1.554 4.376 4.204 5.907l87.077 50.26c6.393 3.69 17.603 3.22 24.998-1.049l83.437-48.162c3.974-2.293 6.169-5.298 6.02-8.251-.11-2.258-1.565-4.26-4.2-5.78l-87.078-50.263c-2.893-1.67-6.769-2.487-10.833-2.487-4.922 0-10.117 1.197-14.164 3.536"/><path id="mtdnam" d="M1161.26 518.559l-50.87 29.027c-2.38 1.359-3.718 3.143-3.669 4.895.035 1.374.948 2.638 2.564 3.56l53.085 30.291c3.898 2.224 10.73 1.94 15.238-.632l50.863-29.027c2.425-1.382 3.762-3.195 3.672-4.97-.07-1.365-.953-2.566-2.558-3.485l-53.087-30.291c-1.765-1.006-4.128-1.497-6.605-1.497-2.997 0-6.166.721-8.634 2.129"/><path id="mtdnan" d="M1161.26 514.932l-50.87 29.066c-2.38 1.364-3.718 3.15-3.669 4.906.035 1.378.948 2.64 2.564 3.561l53.085 30.336c3.898 2.227 10.73 1.942 15.238-.636l50.863-29.064c2.425-1.386 3.762-3.199 3.672-4.98-.07-1.364-.953-2.569-2.558-3.487l-53.087-30.335c-1.765-1.007-4.128-1.499-6.605-1.499-2.997 0-6.166.725-8.634 2.132"/><path id="mtdndC" d="M1171.536 529.12c-1.951 1.173-5.118 1.173-7.072 0-1.952-1.171-1.952-3.072 0-4.24 1.954-1.173 5.118-1.173 7.072 0 1.952 1.168 1.952 3.069 0 4.24"/><path id="mtdnao" d="M1183.36 612.177v4.43l33.566-19.866v-4.431z"/><path id="mtdnap" d="M1220.16 591.512v4.32l8.57-4.922v-4.32z"/><path id="mtdnaq" d="M1183.36 654.3v4.434l33.566-19.87v-4.434z"/><path id="mtdnar" d="M1220.16 634.54v4.39l8.57-5.003v-4.387z"/><path id="mtdnas" d="M1183.36 699.037v4.43l33.566-19.866v-4.431z"/><path id="mtdnat" d="M1220.16 678.48v4.387l8.57-5v-4.387z"/><path id="mtdnau" d="M1171.18 576.553l2.646 1.554-2.646 1.553-2.646-1.553zm4.003-2.356l2.64 1.548-2.64 1.548-2.641-1.548zm-8.175-.095l2.643 1.553-2.643 1.554-2.638-1.554zm4.012-2.357l2.646 1.549-2.646 1.548-2.645-1.549zm8.563-.14l2.64 1.554-2.64 1.556-2.641-1.556zm-4.165-2.454l2.638 1.557-2.638 1.556-2.64-1.556zm23.408-8.87l2.673 1.572-17.606 10.358-2.67-1.572zm-4.173-2.451l2.668 1.571-17.597 10.358-2.669-1.571z"/><path id="mtdndR" d="M1328.954 652.655c5.273 3.127 13.819 3.127 19.092 0 5.272-3.127 5.272-8.188 0-11.314-5.273-3.121-13.819-3.121-19.092 0-5.272 3.126-5.272 8.19 0 11.314"/><linearGradient id="mtdnaw" x1="1066.82" x2="1253.93" y1="234.6" y2="234.6" gradientUnits="userSpaceOnUse"><stop offset="0" stop-color="#14a3db"/><stop offset="1" stop-color="#57f2e8"/></linearGradient><linearGradient id="mtdnay" x1="1076.15" x2="1263.26" y1="228.38" y2="228.38" gradientUnits="userSpaceOnUse"><stop offset="0" stop-color="#14a3db"/><stop offset="1" stop-color="#57f2e8"/></linearGradient><linearGradient id="mtdnaI" x1="1243.23" x2="1257.69" y1="304.46" y2="238.56" gradientUnits="userSpaceOnUse"><stop offset="0" stop-color="#14a3db"/><stop offset="1" stop-color="#57f2e8"/></linearGradient><linearGradient id="mtdnaR" x1="1395.44" x2="1395.44" y1="532.7" y2="306.06" gradientUnits="userSpaceOnUse"><stop offset="0" stop-color="#14a3db"/><stop offset="1" stop-color="#57f2e8"/></linearGradient><linearGradient id="mtdnaT" x1="1330.81" x2="1707.13" y1="434.05" y2="434.05" gradientUnits="userSpaceOnUse"><stop offset="0" stop-color="#3f50b5"/><stop offset="1" stop-color="#2195f2"/></linearGradient><linearGradient id="mtdnaV" x1="1273.3" x2="1618.75" y1="486.09" y2="327.17" gradientUnits="userSpaceOnUse"><stop offset="0" stop-color="#14a3db"/><stop offset="1" stop-color="#57f2e8"/></linearGradient><linearGradient id="mtdnaZ" x1="935.17" x2="935.17" y1="531.31" y2="304.44" gradientUnits="userSpaceOnUse"><stop offset="0" stop-color="#14a3db"/><stop offset="1" stop-color="#57f2e8"/></linearGradient><linearGradient id="mtdnbb" x1="870.78" x2="1248.06" y1="434.61" y2="434.61" gradientUnits="userSpaceOnUse"><stop offset="0" stop-color="#3f50b5"/><stop offset="1" stop-color="#2195f2"/></linearGradient><linearGradient id="mtdnbd" x1="935.55" x2="935.55" y1="518.67" y2="291.89" gradientUnits="userSpaceOnUse"><stop offset="0" stop-color="#14a3db"/><stop offset="1" stop-color="#57f2e8"/></linearGradient><linearGradient id="mtdnbg" x1="753.2" x2="1050.59" y1="422.43" y2="422.43" gradientUnits="userSpaceOnUse"><stop offset="0" stop-color="#3f50b5"/><stop offset="1" stop-color="#2195f2"/></linearGradient><linearGradient id="mtdnbi" x1="815.2" x2="1054.17" y1="414.5" y2="414.5" gradientUnits="userSpaceOnUse"><stop offset="0" stop-color="#14a3db"/><stop offset="1" stop-color="#57f2e8"/></linearGradient><linearGradient id="mtdnbk" x1="815.2" x2="1054.17" y1="409.24" y2="409.24" gradientUnits="userSpaceOnUse"><stop offset="0" stop-color="#3f50b5"/><stop offset="1" stop-color="#2195f2"/></linearGradient><linearGradient id="mtdnbm" x1="819.68" x2="1050.59" y1="398.24" y2="398.24" gradientUnits="userSpaceOnUse"><stop offset="0" stop-color="#14a3db"/><stop offset="1" stop-color="#57f2e8"/></linearGradient><linearGradient id="mtdnbo" x1="851.77" x2="1203.04" y1="327.29" y2="327.29" gradientUnits="userSpaceOnUse"><stop offset="0" stop-color="#149adb"/><stop offset="1" stop-color="#57f2e8"/></linearGradient><linearGradient id="mtdnbr" x1="850.14" x2="1030.19" y1="342.91" y2="342.91" gradientUnits="userSpaceOnUse"><stop offset="0" stop-color="#3f50b5"/><stop offset="1" stop-color="#2195f2"/></linearGradient><linearGradient id="mtdnbt" x1="934.63" x2="934.63" y1="207.47" y2="334.33" gradientUnits="userSpaceOnUse"><stop offset="0" stop-color="#14a3db"/><stop offset="1" stop-color="#57f2e8"/></linearGradient><linearGradient id="mtdnbw" x1="935.45" x2="935.45" y1="269.13" y2="321.42" gradientUnits="userSpaceOnUse"><stop offset="0" stop-color="#14a3db"/><stop offset="1" stop-color="#57f2e8"/></linearGradient><linearGradient id="mtdnbz" x1="936.2" x2="936.2" y1="279.14" y2="318.2" gradientUnits="userSpaceOnUse"><stop offset="0" stop-color="#14a3db"/><stop offset="1" stop-color="#57f2e8"/></linearGradient><linearGradient id="mtdnbC" x1="996.02" x2="996.02" y1="471.81" y2="418.82" gradientUnits="userSpaceOnUse"><stop offset="0" stop-color="#3f50b5"/><stop offset="1" stop-color="#2195f2"/></linearGradient><linearGradient id="mtdnbI" x1="1098.53" x2="1125.81" y1="429.69" y2="429.69" gradientUnits="userSpaceOnUse"><stop offset="0" stop-color="#ffb78f"/><stop offset="1" stop-color="#fa4642"/></linearGradient><linearGradient id="mtdnbK" x1="870.74" x2="1017.62" y1="582.71" y2="489.18" gradientUnits="userSpaceOnUse"><stop offset="0" stop-color="#14a3db"/><stop offset="1" stop-color="#57f2e8"/></linearGradient><linearGradient id="mtdnbM" x1="1016.26" x2="1016.26" y1="264.75" y2="260.78" gradientUnits="userSpaceOnUse"><stop offset="0" stop-color="#14a3db"/><stop offset="1" stop-color="#57f2e8"/></linearGradient><linearGradient id="mtdnbQ" x1="869.16" x2="869.16" y1="455.69" y2="395.23" gradientUnits="userSpaceOnUse"><stop offset="0" stop-color="#3f50b5"/><stop offset="1" stop-color="#2195f2"/></linearGradient><linearGradient id="mtdnbS" x1="873.5" x2="873.5" y1="458.24" y2="397.65" gradientUnits="userSpaceOnUse"><stop offset="0" stop-color="#3f50b5"/><stop offset="1" stop-color="#2195f2"/></linearGradient><linearGradient id="mtdnbU" x1="877.84" x2="877.84" y1="459.58" y2="399.34" gradientUnits="userSpaceOnUse"><stop offset="0" stop-color="#3f50b5"/><stop offset="1" stop-color="#2195f2"/></linearGradient><linearGradient id="mtdnbW" x1="882.18" x2="882.18" y1="462.38" y2="401.79" gradientUnits="userSpaceOnUse"><stop offset="0" stop-color="#3f50b5"/><stop offset="1" stop-color="#2195f2"/></linearGradient><linearGradient id="mtdnbY" x1="1392.27" x2="1392.27" y1="483.6" y2="374.97" gradientUnits="userSpaceOnUse"><stop offset="0" stop-color="#3f50b5"/><stop offset="1" stop-color="#2195f2"/></linearGradient><linearGradient id="mtdnca" x1="1392.26" x2="1392.26" y1="462.31" y2="353.36" gradientUnits="userSpaceOnUse"><stop offset="0" stop-color="#14a3db"/><stop offset="1" stop-color="#57f2e8"/></linearGradient><linearGradient id="mtdncc" x1="1392.27" x2="1392.27" y1="450.67" y2="342.04" gradientUnits="userSpaceOnUse"><stop offset="0" stop-color="#3f50b5"/><stop offset="1" stop-color="#2195f2"/></linearGradient><linearGradient id="mtdnce" x1="1392.26" x2="1392.26" y1="429.54" y2="320.43" gradientUnits="userSpaceOnUse"><stop offset="0" stop-color="#14a3db"/><stop offset="1" stop-color="#57f2e8"/></linearGradient><linearGradient id="mtdncg" x1="1392.27" x2="1392.27" y1="418.82" y2="310.05" gradientUnits="userSpaceOnUse"><stop offset="0" stop-color="#3f50b5"/><stop offset="1" stop-color="#2195f2"/></linearGradient><linearGradient id="mtdnci" x1="1392.26" x2="1392.26" y1="396.72" y2="287.68" gradientUnits="userSpaceOnUse"><stop offset="0" stop-color="#14a3db"/><stop offset="1" stop-color="#57f2e8"/></linearGradient><linearGradient id="mtdnck" x1="1392.27" x2="1392.27" y1="385.92" y2="277.4" gradientUnits="userSpaceOnUse"><stop offset="0" stop-color="#3f50b5"/><stop offset="1" stop-color="#2195f2"/></linearGradient><linearGradient id="mtdncm" x1="1340.16" x2="1443.68" y1="371.4" y2="271.04" gradientUnits="userSpaceOnUse"><stop offset="0" stop-color="#14a3db"/><stop offset="1" stop-color="#57f2e8"/></linearGradient><linearGradient id="mtdnco" x1="1393.77" x2="1393.77" y1="352.6" y2="258.34" gradientUnits="userSpaceOnUse"><stop offset="0" stop-color="#3f50b5"/><stop offset="1" stop-color="#2195f2"/></linearGradient><linearGradient id="mtdncq" x1="1331.1" x2="1456.44" y1="320.79" y2="320.79" gradientUnits="userSpaceOnUse"><stop offset="0" stop-color="#ffb78f"/><stop offset="1" stop-color="#fa4642"/></linearGradient><linearGradient id="mtdnct" x1="1438.03" x2="1471.59" y1="359.98" y2="359.98" gradientUnits="userSpaceOnUse"><stop offset="0" stop-color="#14a3db"/><stop offset="1" stop-color="#57f2e8"/></linearGradient><linearGradient id="mtdncv" x1="1464.84" x2="1482.45" y1="353.46" y2="343.93" gradientUnits="userSpaceOnUse"><stop offset="0" stop-color="#14a3db"/><stop offset="1" stop-color="#57f2e8"/></linearGradient><linearGradient id="mtdncx" x1="1438.03" x2="1471.59" y1="393.44" y2="393.44" gradientUnits="userSpaceOnUse"><stop offset="0" stop-color="#14a3db"/><stop offset="1" stop-color="#57f2e8"/></linearGradient><linearGradient id="mtdncz" x1="1464.84" x2="1482.45" y1="386.91" y2="377.24" gradientUnits="userSpaceOnUse"><stop offset="0" stop-color="#14a3db"/><stop offset="1" stop-color="#57f2e8"/></linearGradient><linearGradient id="mtdncB" x1="1438.03" x2="1471.59" y1="425.91" y2="425.91" gradientUnits="userSpaceOnUse"><stop offset="0" stop-color="#14a3db"/><stop offset="1" stop-color="#57f2e8"/></linearGradient><linearGradient id="mtdncD" x1="1464.84" x2="1482.45" y1="419.55" y2="409.89" gradientUnits="userSpaceOnUse"><stop offset="0" stop-color="#14a3db"/><stop offset="1" stop-color="#57f2e8"/></linearGradient><linearGradient id="mtdncF" x1="1438.03" x2="1471.59" y1="456.52" y2="456.52" gradientUnits="userSpaceOnUse"><stop offset="0" stop-color="#14a3db"/><stop offset="1" stop-color="#57f2e8"/></linearGradient><linearGradient id="mtdncH" x1="1464.84" x2="1482.45" y1="450.98" y2="441.31" gradientUnits="userSpaceOnUse"><stop offset="0" stop-color="#14a3db"/><stop offset="1" stop-color="#57f2e8"/></linearGradient><linearGradient id="mtdncJ" x1="1309.11" x2="1331" y1="419.86" y2="419.86" gradientUnits="userSpaceOnUse"><stop offset="0" stop-color="#14a3db"/><stop offset="1" stop-color="#57f2e8"/></linearGradient><linearGradient id="mtdncL" x1="1309.11" x2="1331" y1="386.1" y2="386.1" gradientUnits="userSpaceOnUse"><stop offset="0" stop-color="#14a3db"/><stop offset="1" stop-color="#57f2e8"/></linearGradient><linearGradient id="mtdncN" x1="1355.86" x2="1429.14" y1="371.95" y2="325.36" gradientUnits="userSpaceOnUse"><stop offset="0" stop-color="#14a3db"/><stop offset="1" stop-color="#57f2e8"/></linearGradient><linearGradient id="mtdncP" x1="1309.68" x2="1313.41" y1="441.11" y2="441.11" gradientUnits="userSpaceOnUse"><stop offset="0" stop-color="#14a3db"/><stop offset="1" stop-color="#57f2e8"/></linearGradient><linearGradient id="mtdncR" x1="1318.18" x2="1321.92" y1="445.54" y2="445.54" gradientUnits="userSpaceOnUse"><stop offset="0" stop-color="#14a3db"/><stop offset="1" stop-color="#57f2e8"/></linearGradient><linearGradient id="mtdncT" x1="1326.69" x2="1330.42" y1="450.61" y2="450.61" gradientUnits="userSpaceOnUse"><stop offset="0" stop-color="#14a3db"/><stop offset="1" stop-color="#57f2e8"/></linearGradient><linearGradient id="mtdncZ" x1="1163.56" x2="1163.56" y1="744.06" y2="517.55" gradientUnits="userSpaceOnUse"><stop offset="0" stop-color="#14a3db"/><stop offset="1" stop-color="#57f2e8"/></linearGradient><linearGradient id="mtdndb" x1="1098.74" x2="1475.87" y1="648.03" y2="648.03" gradientUnits="userSpaceOnUse"><stop offset="0" stop-color="#3f50b5"/><stop offset="1" stop-color="#2195f2"/></linearGradient><linearGradient id="mtdndd" x1="1041.12" x2="1387.29" y1="698.2" y2="539.17" gradientUnits="userSpaceOnUse"><stop offset="0" stop-color="#14a3db"/><stop offset="1" stop-color="#57f2e8"/></linearGradient><linearGradient id="mtdndf" x1="1167.93" x2="1167.93" y1="702.1" y2="593.58" gradientUnits="userSpaceOnUse"><stop offset="0" stop-color="#3f50b5"/><stop offset="1" stop-color="#2195f2"/></linearGradient><linearGradient id="mtdndh" x1="1167.93" x2="1167.93" y1="678.97" y2="569.93" gradientUnits="userSpaceOnUse"><stop offset="0" stop-color="#14a3db"/><stop offset="1" stop-color="#57f2e8"/></linearGradient><linearGradient id="mtdndj" x1="1168.94" x2="1168.94" y1="675.1" y2="598.06" gradientUnits="userSpaceOnUse"><stop offset="0" stop-color="#3f50b5"/><stop offset="1" stop-color="#2195f2"/></linearGradient><linearGradient id="mtdndl" x1="1168.94" x2="1168.94" y1="667.81" y2="565.31" gradientUnits="userSpaceOnUse"><stop offset="0" stop-color="#148adb"/><stop offset="1" stop-color="#57f2e8"/></linearGradient><linearGradient id="mtdndn" x1="1167.93" x2="1167.93" y1="657.02" y2="548.26" gradientUnits="userSpaceOnUse"><stop offset="0" stop-color="#3f50b5"/><stop offset="1" stop-color="#2195f2"/></linearGradient><linearGradient id="mtdndp" x1="1167.93" x2="1167.93" y1="633.74" y2="524.7" gradientUnits="userSpaceOnUse"><stop offset="0" stop-color="#14a3db"/><stop offset="1" stop-color="#57f2e8"/></linearGradient><linearGradient id="mtdndr" x1="1168.94" x2="1168.94" y1="630.01" y2="552.75" gradientUnits="userSpaceOnUse"><stop offset="0" stop-color="#3f50b5"/><stop offset="1" stop-color="#2195f2"/></linearGradient><linearGradient id="mtdndt" x1="1168.94" x2="1168.94" y1="609.51" y2="506.85" gradientUnits="userSpaceOnUse"><stop offset="0" stop-color="#148adb"/><stop offset="1" stop-color="#57f2e8"/></linearGradient><linearGradient id="mtdndv" x1="1167.93" x2="1167.93" y1="613.67" y2="505.28" gradientUnits="userSpaceOnUse"><stop offset="0" stop-color="#3f50b5"/><stop offset="1" stop-color="#2195f2"/></linearGradient><linearGradient id="mtdndx" x1="1167.93" x2="1167.93" y1="591.54" y2="482.59" gradientUnits="userSpaceOnUse"><stop offset="0" stop-color="#14a3db"/><stop offset="1" stop-color="#57f2e8"/></linearGradient><linearGradient id="mtdndz" x1="1169.44" x2="1169.44" y1="580.32" y2="486.2" gradientUnits="userSpaceOnUse"><stop offset="0" stop-color="#3f50b5"/><stop offset="1" stop-color="#2195f2"/></linearGradient><linearGradient id="mtdndB" x1="1106.72" x2="1232.15" y1="548.55" y2="548.55" gradientUnits="userSpaceOnUse"><stop offset="0" stop-color="#ffb78f"/><stop offset="1" stop-color="#fa4642"/></linearGradient><linearGradient id="mtdndE" x1="1183.36" x2="1216.92" y1="604.46" y2="604.46" gradientUnits="userSpaceOnUse"><stop offset="0" stop-color="#14a3db"/><stop offset="1" stop-color="#57f2e8"/></linearGradient><linearGradient id="mtdndG" x1="1210.36" x2="1227.8" y1="598.91" y2="589.38" gradientUnits="userSpaceOnUse"><stop offset="0" stop-color="#14a3db"/><stop offset="1" stop-color="#57f2e8"/></linearGradient><linearGradient id="mtdndI" x1="1183.36" x2="1216.92" y1="646.59" y2="646.59" gradientUnits="userSpaceOnUse"><stop offset="0" stop-color="#14a3db"/><stop offset="1" stop-color="#57f2e8"/></linearGradient><linearGradient id="mtdndK" x1="1210.36" x2="1227.8" y1="642.05" y2="632.38" gradientUnits="userSpaceOnUse"><stop offset="0" stop-color="#14a3db"/><stop offset="1" stop-color="#57f2e8"/></linearGradient><linearGradient id="mtdndM" x1="1183.36" x2="1216.92" y1="691.32" y2="691.32" gradientUnits="userSpaceOnUse"><stop offset="0" stop-color="#14a3db"/><stop offset="1" stop-color="#57f2e8"/></linearGradient><linearGradient id="mtdndO" x1="1210.36" x2="1227.8" y1="685.99" y2="676.32" gradientUnits="userSpaceOnUse"><stop offset="0" stop-color="#14a3db"/><stop offset="1" stop-color="#57f2e8"/></linearGradient><linearGradient id="mtdndQ" x1="1133.77" x2="1206.68" y1="600.17" y2="553.58" gradientUnits="userSpaceOnUse"><stop offset="0" stop-color="#14a3db"/><stop offset="1" stop-color="#57f2e8"/></linearGradient><linearGradient id="mtdndS" x1="1325" x2="1352" y1="647" y2="647" gradientUnits="userSpaceOnUse"><stop offset="0" stop-color="#ffb78f"/><stop offset="1" stop-color="#fa4642"/></linearGradient><clipPath id="mtdnav"><use xlink:href="#mtdna"/></clipPath><clipPath id="mtdnax"><use xlink:href="#mtdnb"/></clipPath><clipPath id="mtdnaz"><use xlink:href="#mtdnc"/></clipPath><clipPath id="mtdnaA"><use xlink:href="#mtdnd"/></clipPath><clipPath id="mtdnaH"><use xlink:href="#mtdne"/></clipPath><clipPath id="mtdnaP"><use xlink:href="#mtdnf"/></clipPath><clipPath id="mtdnaS"><use xlink:href="#mtdng"/></clipPath><clipPath id="mtdnaU"><use xlink:href="#mtdnh"/></clipPath><clipPath id="mtdnaX"><use xlink:href="#mtdni"/></clipPath><clipPath id="mtdnba"><use xlink:href="#mtdnj"/></clipPath><clipPath id="mtdnbc"><use xlink:href="#mtdnk"/></clipPath><clipPath id="mtdnbe"><use xlink:href="#mtdnl"/></clipPath><clipPath id="mtdnbh"><use xlink:href="#mtdnm"/></clipPath><clipPath id="mtdnbj"><use xlink:href="#mtdnn"/></clipPath><clipPath id="mtdnbl"><use xlink:href="#mtdno"/></clipPath><clipPath id="mtdnbn"><use xlink:href="#mtdnp"/></clipPath><clipPath id="mtdnbq"><use xlink:href="#mtdnq"/></clipPath><clipPath id="mtdnbs"><use xlink:href="#mtdnr"/></clipPath><clipPath id="mtdnbu"><use xlink:href="#mtdns"/></clipPath><clipPath id="mtdnbx"><use xlink:href="#mtdnt"/></clipPath><clipPath id="mtdnbB"><use xlink:href="#mtdnu"/></clipPath><clipPath id="mtdnbJ"><use xlink:href="#mtdnv"/></clipPath><clipPath id="mtdnbL"><use xlink:href="#mtdnw"/></clipPath><clipPath id="mtdnbP"><use xlink:href="#mtdnx"/></clipPath><clipPath id="mtdnbR"><use xlink:href="#mtdny"/></clipPath><clipPath id="mtdnbT"><use xlink:href="#mtdnz"/></clipPath><clipPath id="mtdnbV"><use xlink:href="#mtdnA"/></clipPath><clipPath id="mtdnbX"><use xlink:href="#mtdnB"/></clipPath><clipPath id="mtdnbZ"><use xlink:href="#mtdnC"/></clipPath><clipPath id="mtdncb"><use xlink:href="#mtdnD"/></clipPath><clipPath id="mtdncd"><use xlink:href="#mtdnE"/></clipPath><clipPath id="mtdncf"><use xlink:href="#mtdnF"/></clipPath><clipPath id="mtdnch"><use xlink:href="#mtdnG"/></clipPath><clipPath id="mtdncj"><use xlink:href="#mtdnH"/></clipPath><clipPath id="mtdncl"><use xlink:href="#mtdnI"/></clipPath><clipPath id="mtdncn"><use xlink:href="#mtdnJ"/></clipPath><clipPath id="mtdncp"><use xlink:href="#mtdnK"/></clipPath><clipPath id="mtdncs"><use xlink:href="#mtdnL"/></clipPath><clipPath id="mtdncu"><use xlink:href="#mtdnM"/></clipPath><clipPath id="mtdncw"><use xlink:href="#mtdnN"/></clipPath><clipPath id="mtdncy"><use xlink:href="#mtdnO"/></clipPath><clipPath id="mtdncA"><use xlink:href="#mtdnP"/></clipPath><clipPath id="mtdncC"><use xlink:href="#mtdnQ"/></clipPath><clipPath id="mtdncE"><use xlink:href="#mtdnR"/></clipPath><clipPath id="mtdncG"><use xlink:href="#mtdnS"/></clipPath><clipPath id="mtdncI"><use xlink:href="#mtdnT"/></clipPath><clipPath id="mtdncK"><use xlink:href="#mtdnU"/></clipPath><clipPath id="mtdncM"><use xlink:href="#mtdnV"/></clipPath><clipPath id="mtdncO"><use xlink:href="#mtdnW"/></clipPath><clipPath id="mtdncQ"><use xlink:href="#mtdnX"/></clipPath><clipPath id="mtdncS"><use xlink:href="#mtdnY"/></clipPath><clipPath id="mtdncX"><use xlink:href="#mtdnZ"/></clipPath><clipPath id="mtdnda"><use xlink:href="#mtdnaa"/></clipPath><clipPath id="mtdndc"><use xlink:href="#mtdnab"/></clipPath><clipPath id="mtdnde"><use xlink:href="#mtdnac"/></clipPath><clipPath id="mtdndg"><use xlink:href="#mtdnad"/></clipPath><clipPath id="mtdndi"><use xlink:href="#mtdnae"/></clipPath><clipPath id="mtdndk"><use xlink:href="#mtdnaf"/></clipPath><clipPath id="mtdndm"><use xlink:href="#mtdnag"/></clipPath><clipPath id="mtdndo"><use xlink:href="#mtdnah"/></clipPath><clipPath id="mtdndq"><use xlink:href="#mtdnai"/></clipPath><clipPath id="mtdnds"><use xlink:href="#mtdnaj"/></clipPath><clipPath id="mtdndu"><use xlink:href="#mtdnak"/></clipPath><clipPath id="mtdndw"><use xlink:href="#mtdnal"/></clipPath><clipPath id="mtdndy"><use xlink:href="#mtdnam"/></clipPath><clipPath id="mtdndA"><use xlink:href="#mtdnan"/></clipPath><clipPath id="mtdndD"><use xlink:href="#mtdnao"/></clipPath><clipPath id="mtdndF"><use xlink:href="#mtdnap"/></clipPath><clipPath id="mtdndH"><use xlink:href="#mtdnaq"/></clipPath><clipPath id="mtdndJ"><use xlink:href="#mtdnar"/></clipPath><clipPath id="mtdndL"><use xlink:href="#mtdnas"/></clipPath><clipPath id="mtdndN"><use xlink:href="#mtdnat"/></clipPath><clipPath id="mtdndP"><use xlink:href="#mtdnau"/></clipPath></defs><g><g transform="translate(-721 -113)"><g><g/><g clip-path="url(#mtdnav)"><use fill="url(#mtdnaw)" xlink:href="#mtdna"/></g></g><g><g/><g clip-path="url(#mtdnax)"><use fill="url(#mtdnay)" xlink:href="#mtdnb"/></g></g><g><g/><g clip-path="url(#mtdnaz)"/></g><g><g/><g clip-path="url(#mtdnaA)"/></g><g><g><use fill="#d8b4b4" xlink:href="#mtdnaB"/></g><g><use fill="#d8b4b4" xlink:href="#mtdnaC"/></g><g><use fill="#d8b4b4" xlink:href="#mtdnaD"/></g><g><use fill="#fff" xlink:href="#mtdnaE"/></g><g><use fill="#fff" xlink:href="#mtdnaF"/></g><g><use fill="#fff" xlink:href="#mtdnaG"/></g><g><g/><g clip-path="url(#mtdnaH)"><use fill="url(#mtdnaI)" xlink:href="#mtdne"/></g></g><g><use fill="#d8b4b4" xlink:href="#mtdnaJ"/></g><g><use fill="#d8b4b4" xlink:href="#mtdnaK"/></g><g><use fill="#d8b4b4" xlink:href="#mtdnaL"/></g><g><use fill="#d8b4b4" xlink:href="#mtdnaM"/></g><g><use fill="#d8b4b4" xlink:href="#mtdnaN"/></g><g><use fill="#d8b4b4" xlink:href="#mtdnaO"/></g><g><g/><g clip-path="url(#mtdnaP)"><use fill="url(#mtdnaR)" xlink:href="#mtdnaQ"/></g></g></g><g><g/><g clip-path="url(#mtdnaS)"><use fill="url(#mtdnaT)" xlink:href="#mtdng"/></g></g><g><g/><g clip-path="url(#mtdnaU)"><use fill="url(#mtdnaV)" xlink:href="#mtdnh"/></g></g><g><g><use fill="#d8b4b4" xlink:href="#mtdnaW"/></g><g><g/><g clip-path="url(#mtdnaX)"><use fill="url(#mtdnaZ)" xlink:href="#mtdnaY"/></g></g></g><g><g/><g clip-path="url(#mtdnba)"><use fill="url(#mtdnbb)" xlink:href="#mtdnj"/></g></g><g><g/><g clip-path="url(#mtdnbc)"><use fill="url(#mtdnbd)" xlink:href="#mtdnk"/></g></g><g><g/><g clip-path="url(#mtdnbe)"><use fill="url(#mtdnbg)" xlink:href="#mtdnbf"/></g></g><g><g/><g clip-path="url(#mtdnbh)"><use fill="url(#mtdnbi)" xlink:href="#mtdnm"/></g></g><g><g/><g clip-path="url(#mtdnbj)"><use fill="url(#mtdnbk)" xlink:href="#mtdnn"/></g></g><g><g/><g clip-path="url(#mtdnbl)"><use fill="url(#mtdnbm)" xlink:href="#mtdno"/></g></g><g><g/><g clip-path="url(#mtdnbn)"><use fill="url(#mtdnbo)" xlink:href="#mtdnp"/></g></g><g><use fill="#fff" xlink:href="#mtdnbp"/></g><g><g/><g clip-path="url(#mtdnbq)"><use fill="url(#mtdnbr)" xlink:href="#mtdnq"/></g></g><g><g/><g clip-path="url(#mtdnbs)"><use fill="url(#mtdnbt)" xlink:href="#mtdnr"/></g></g><g><g><g/><g clip-path="url(#mtdnbu)"><use fill="url(#mtdnbw)" xlink:href="#mtdnbv"/></g></g><g><g/><g clip-path="url(#mtdnbx)"><use fill="url(#mtdnbz)" xlink:href="#mtdnby"/></g></g><g><use fill="#fff" xlink:href="#mtdnbA"/></g></g><g><g/><g clip-path="url(#mtdnbB)"><use fill="url(#mtdnbC)" xlink:href="#mtdnu"/></g></g><g><g><use fill="#fff" xlink:href="#mtdnbD"/></g><g><use fill="#fff" xlink:href="#mtdnbE"/></g><g><use fill="#fff" xlink:href="#mtdnbF"/></g><g><use fill="#fff" xlink:href="#mtdnbG"/></g><g><use fill="url(#mtdnbI)" xlink:href="#mtdnbH"/></g></g><g><g/><g clip-path="url(#mtdnbJ)"><use fill="url(#mtdnbK)" xlink:href="#mtdnv"/></g></g><g><g/><g clip-path="url(#mtdnbL)"><use fill="url(#mtdnbM)" xlink:href="#mtdnw"/></g></g><g><g><use fill="#fff" xlink:href="#mtdnbN"/></g><g><use fill="#fff" xlink:href="#mtdnbO"/></g></g><g><g/><g clip-path="url(#mtdnbP)"><use fill="url(#mtdnbQ)" xlink:href="#mtdnx"/></g></g><g><g/><g clip-path="url(#mtdnbR)"><use fill="url(#mtdnbS)" xlink:href="#mtdny"/></g></g><g><g/><g clip-path="url(#mtdnbT)"><use fill="url(#mtdnbU)" xlink:href="#mtdnz"/></g></g><g><g/><g clip-path="url(#mtdnbV)"><use fill="url(#mtdnbW)" xlink:href="#mtdnA"/></g></g><g><g/><g clip-path="url(#mtdnbX)"><use fill="url(#mtdnbY)" xlink:href="#mtdnB"/></g></g><g><g/><g clip-path="url(#mtdnbZ)"><use fill="url(#mtdnca)" xlink:href="#mtdnC"/></g></g><g><g/><g clip-path="url(#mtdncb)"><use fill="url(#mtdncc)" xlink:href="#mtdnD"/></g></g><g><g/><g clip-path="url(#mtdncd)"><use fill="url(#mtdnce)" xlink:href="#mtdnE"/></g></g><g><g/><g clip-path="url(#mtdncf)"><use fill="url(#mtdncg)" xlink:href="#mtdnF"/></g></g><g><g/><g clip-path="url(#mtdnch)"><use fill="url(#mtdnci)" xlink:href="#mtdnG"/></g></g><g><g/><g clip-path="url(#mtdncj)"><use fill="url(#mtdnck)" xlink:href="#mtdnH"/></g></g><g><g/><g clip-path="url(#mtdncl)"><use fill="url(#mtdncm)" xlink:href="#mtdnI"/></g></g><g><g/><g clip-path="url(#mtdncn)"><use fill="url(#mtdnco)" xlink:href="#mtdnJ"/></g></g><g><g/><g clip-path="url(#mtdncp)"><use fill="url(#mtdncq)" xlink:href="#mtdnK"/></g></g><g><use fill="#fff" xlink:href="#mtdncr"/></g><g><g/><g clip-path="url(#mtdncs)"><use fill="url(#mtdnct)" xlink:href="#mtdnL"/></g></g><g><g/><g clip-path="url(#mtdncu)"><use fill="url(#mtdncv)" xlink:href="#mtdnM"/></g></g><g><g/><g clip-path="url(#mtdncw)"><use fill="url(#mtdncx)" xlink:href="#mtdnN"/></g></g><g><g/><g clip-path="url(#mtdncy)"><use fill="url(#mtdncz)" xlink:href="#mtdnO"/></g></g><g><g/><g clip-path="url(#mtdncA)"><use fill="url(#mtdncB)" xlink:href="#mtdnP"/></g></g><g><g/><g clip-path="url(#mtdncC)"><use fill="url(#mtdncD)" xlink:href="#mtdnQ"/></g></g><g><g/><g clip-path="url(#mtdncE)"><use fill="url(#mtdncF)" xlink:href="#mtdnR"/></g></g><g><g/><g clip-path="url(#mtdncG)"><use fill="url(#mtdncH)" xlink:href="#mtdnS"/></g></g><g><g/><g clip-path="url(#mtdncI)"><use fill="url(#mtdncJ)" xlink:href="#mtdnT"/></g></g><g><g/><g clip-path="url(#mtdncK)"><use fill="url(#mtdncL)" xlink:href="#mtdnU"/></g></g><g><g/><g clip-path="url(#mtdncM)"><use fill="url(#mtdncN)" xlink:href="#mtdnV"/></g></g><g><g/><g clip-path="url(#mtdncO)"><use fill="url(#mtdncP)" xlink:href="#mtdnW"/></g></g><g><g/><g clip-path="url(#mtdncQ)"><use fill="url(#mtdncR)" xlink:href="#mtdnX"/></g></g><g><g/><g clip-path="url(#mtdncS)"><use fill="url(#mtdncT)" xlink:href="#mtdnY"/></g></g><g><g><use fill="#d8b4b4" xlink:href="#mtdncU"/></g><g><use fill="#d8b4b4" xlink:href="#mtdncV"/></g><g><use fill="#d8b4b4" xlink:href="#mtdncW"/></g><g><g/><g clip-path="url(#mtdncX)"><use fill="url(#mtdncZ)" xlink:href="#mtdncY"/></g></g></g><g><g/><g clip-path="url(#mtdnda)"><use fill="url(#mtdndb)" xlink:href="#mtdnaa"/></g></g><g><g/><g clip-path="url(#mtdndc)"><use fill="url(#mtdndd)" xlink:href="#mtdnab"/></g></g><g><g/><g clip-path="url(#mtdnde)"><use fill="url(#mtdndf)" xlink:href="#mtdnac"/></g></g><g><g/><g clip-path="url(#mtdndg)"><use fill="url(#mtdndh)" xlink:href="#mtdnad"/></g></g><g><g/><g clip-path="url(#mtdndi)"><use fill="url(#mtdndj)" xlink:href="#mtdnae"/></g></g><g><g/><g clip-path="url(#mtdndk)"><use fill="url(#mtdndl)" xlink:href="#mtdnaf"/></g></g><g><g/><g clip-path="url(#mtdndm)"><use fill="url(#mtdndn)" xlink:href="#mtdnag"/></g></g><g><g/><g clip-path="url(#mtdndo)"><use fill="url(#mtdndp)" xlink:href="#mtdnah"/></g></g><g><g/><g clip-path="url(#mtdndq)"><use fill="url(#mtdndr)" xlink:href="#mtdnai"/></g></g><g><g/><g clip-path="url(#mtdnds)"><use fill="url(#mtdndt)" xlink:href="#mtdnaj"/></g></g><g><g/><g clip-path="url(#mtdndu)"><use fill="url(#mtdndv)" xlink:href="#mtdnak"/></g></g><g><g/><g clip-path="url(#mtdndw)"><use fill="url(#mtdndx)" xlink:href="#mtdnal"/></g></g><g><g/><g clip-path="url(#mtdndy)"><use fill="url(#mtdndz)" xlink:href="#mtdnam"/></g></g><g><g/><g clip-path="url(#mtdndA)"><use fill="url(#mtdndB)" xlink:href="#mtdnan"/></g></g><g><use fill="#fff" xlink:href="#mtdndC"/></g><g><g/><g clip-path="url(#mtdndD)"><use fill="url(#mtdndE)" xlink:href="#mtdnao"/></g></g><g><g/><g clip-path="url(#mtdndF)"><use fill="url(#mtdndG)" xlink:href="#mtdnap"/></g></g><g><g/><g clip-path="url(#mtdndH)"><use fill="url(#mtdndI)" xlink:href="#mtdnaq"/></g></g><g><g/><g clip-path="url(#mtdndJ)"><use fill="url(#mtdndK)" xlink:href="#mtdnar"/></g></g><g><g/><g clip-path="url(#mtdndL)"><use fill="url(#mtdndM)" xlink:href="#mtdnas"/></g></g><g><g/><g clip-path="url(#mtdndN)"><use fill="url(#mtdndO)" xlink:href="#mtdnat"/></g></g><g><g/><g clip-path="url(#mtdndP)"><use fill="url(#mtdndQ)" xlink:href="#mtdnau"/></g></g><g><use fill="url(#mtdndS)" xlink:href="#mtdndR"/></g></g></g></svg>