<svg xmlns="http://www.w3.org/2000/svg" xmlns:xlink="http://www.w3.org/1999/xlink" width="33" height="34" viewBox="0 0 33 34"><defs><path id="36u9a" d="M131.382 47.605c-.009.003-.01.012-.018.014-.014.004-.026-.006-.04-.003-.032.006-.06.001-.093-.004-.02-.002-.041.01-.062.002l-5.8-2.028c-.008-.003-.008-.012-.015-.015a.291.291 0 0 1-.176-.179l-2.162-6.853a.288.288 0 0 1 .003-.168c.002-.007-.001-.013 0-.02.003-.007.013-.009.016-.017.007-.013.013-.024.022-.037.009-.012.009-.027.02-.04l9.045-10.171c.014-.017.038-.015.055-.028a.301.301 0 0 1 .214-.057c.02.003.04-.01.061-.004l12.191 3.883c.009.002.011.014.02.018.02.007.034.018.053.032.011.006.027.003.037.012.016.013.012.034.025.05.018.023.036.038.046.064.004.009.015.01.018.02l2.163 6.852c.004.014-.006.026-.005.038.007.04-.002.072-.01.11-.009.04-.015.072-.04.105-.007.01-.002.025-.012.034l-4.818 5.174c-.015.017-.038.014-.056.026-.022.017-.038.035-.064.046-.008.002-.01.011-.018.014-.014.004-.026-.006-.04-.004-.032.006-.06.002-.093-.003-.02-.003-.041.01-.062.002l-5.606-1.96-4.679 5.023c-.015.017-.038.014-.056.027-.022.016-.038.035-.064.045zm12.899-14.817l-4.374 4.703 1.973 6.251 4.373-4.703zm-12.79 14.029l4.385-4.703-1.97-6.245-4.385 4.703zm.817-18.058l-8.518 9.754 5.167 1.86 4.626-5.054c.015-.017.038-.014.056-.026.022-.016.037-.036.064-.046.008-.002.01-.012.018-.014.013-.004.025.006.038.004.033-.006.06-.002.094.004.02.004.04-.01.06-.002l5.589 2.011 4.312-4.712z"/><path id="36u9c" d="M146.704 42.395c.008-.002.01-.012.016-.014.014-.004.026.006.039.003.032-.007.058-.003.091.001.02.003.04-.01.06-.002l5.672 1.927c.008.002.008.01.015.014a.287.287 0 0 1 .173.176l2.221 6.806a.296.296 0 0 1 0 .168c-.002.007.002.013 0 .02-.003.007-.012.009-.015.017a.351.351 0 0 1-.02.037c-.009.013-.009.028-.019.04l-8.614 10.311c-.013.017-.036.016-.053.029a.285.285 0 0 1-.207.06c-.02-.002-.039.012-.06.006l-11.915-3.67c-.008-.002-.01-.014-.02-.017-.02-.007-.033-.018-.05-.031-.012-.007-.027-.003-.038-.012-.015-.013-.012-.034-.025-.05-.017-.022-.035-.037-.045-.063-.004-.008-.015-.01-.018-.019l-2.22-6.806c-.005-.014.005-.026.003-.038-.007-.039 0-.071.009-.11.007-.039.012-.072.036-.105.006-.01.002-.025.011-.035l4.592-5.248c.015-.017.037-.014.054-.027.021-.017.037-.036.062-.047.008-.002.01-.012.017-.014.014-.004.026.006.039.003.031-.007.058-.003.09.001.02.003.04-.01.06-.003l5.483 1.862 4.46-5.096c.014-.017.037-.014.054-.027.02-.017.036-.036.062-.047zm-12.287 14.997l4.17-4.766-2.022-6.199-4.17 4.767zM146.6 43.185l-4.18 4.77 2.023 6.199 4.18-4.77zm-.47 18.045l8.11-9.882-5.053-1.768-4.409 5.124c-.014.017-.036.014-.053.027-.022.016-.036.036-.062.047-.008.002-.01.012-.017.014-.013.004-.025-.006-.038-.003-.031.007-.058.003-.09-.002-.02-.004-.04.01-.06.003l-5.465-1.912-4.11 4.777z"/><linearGradient id="36u9b" x1="123" x2="147" y1="37.81" y2="37.81" gradientUnits="userSpaceOnUse"><stop offset="0" stop-color="#cc5b4a"/><stop offset="1" stop-color="#ffc09a"/></linearGradient><linearGradient id="36u9d" x1="154.43" x2="132.24" y1="49.16" y2="55.22" gradientUnits="userSpaceOnUse"><stop offset="0" stop-color="#54efe8"/><stop offset="1" stop-color="#3b57bb"/></linearGradient></defs><g><g transform="translate(-123 -28)"><g><g><g><use fill="url(#36u9b)" xlink:href="#36u9a"/></g><g><use fill="url(#36u9d)" xlink:href="#36u9c"/></g></g></g></g></g></svg>